<svg width="42" height="30" viewBox="0 0 42 30" fill="none" xmlns="http://www.w3.org/2000/svg">
<path fill-rule="evenodd" clip-rule="evenodd" d="M28.7 26.9C29.7 28.2 31 29.7 31 29.7C37.9996 29.5205 41.1338 25.3951 41.7756 24.5503C41.849 24.4537 41.8897 24.4 41.9 24.4C41.9 13.1 36.8 4 36.8 4C31.7 0.199998 26.9 0.299748 26.9 0.299748L26.4 0.899998C32.4 2.7 35.2 5.3 35.2 5.3C31.6 3.3 28 2.3 24.6 1.9C22.1 1.6 19.7 1.7 17.5 2C17.4 2 17.3 2.025 17.2 2.05C17.1 2.075 17 2.1 16.9 2.1C15.7 2.2 12.7 2.6 8.90001 4.3C7.60001 4.9 6.80001 5.3 6.80001 5.3C6.80001 5.3 9.60001 2.5 16 0.699998L15.6 0.299748C15.6 0.299748 10.8 0.199998 5.70001 4C5.70001 4 0.600006 13.1 0.600006 24.4C0.600006 24.4 3.60001 29.5 11.4 29.7C11.4 29.7 12.7 28.1 13.8 26.8C9.30001 25.5 7.60001 22.7 7.60001 22.7C7.60001 22.7 8.00001 22.9 8.60001 23.3C8.60001 23.3 8.60001 23.4 8.70001 23.4C8.75001 23.45 8.80001 23.475 8.85001 23.5C8.90001 23.525 8.95001 23.55 9.00001 23.6C9.90001 24.1 10.8 24.5 11.6 24.8C13.1 25.4 14.8 25.9 16.8 26.3C19.4 26.8 22.5 26.9 25.9 26.3C27.5 26 29.2 25.5 31 24.8C32.3 24.3 33.7 23.7 35.1 22.7C35.1 22.7 33.3 25.6 28.7 26.9ZM23.9 17.3C23.9 15.1 25.5 13.4 27.5 13.4C29.5 13.4 31.1 15.1 31.1 17.3C31.1 19.5 29.5 21.2 27.5 21.2C25.5 21.2 23.9 19.5 23.9 17.3ZM11 17.3C11 15.1 12.6 13.4 14.6 13.4C16.6 13.4 18.2 15.1 18.2 17.3C18.2 19.5 16.6 21.2 14.6 21.2C12.6 21.2 11 19.5 11 17.3Z" fill="black"/>
</svg>