<?xml version="1.0" encoding="UTF-8"?>
<svg width="42px" height="30px" viewBox="0 0 42 30" version="1.1" xmlns="http://www.w3.org/2000/svg" xmlns:xlink="http://www.w3.org/1999/xlink">
    <!-- Generator: Sketch 55.2 (78181) - https://sketchapp.com -->
    <title>discord-yellow-round-icon</title>
    <desc>Created with Sketch.</desc>
    <g id="Page-1" stroke="none" stroke-width="1" fill="none" fill-rule="evenodd">
        <g id="discord-yellow-round-icon" fill-rule="nonzero">
            <path d="M31,29.7 C31,29.7 29.7,28.2 28.7,26.9 C33.3,25.6 35.1,22.7 35.1,22.7 C33.7,23.7 32.3,24.3 31,24.8 C29.2,25.5 27.5,26 25.9,26.3 C22.5,26.9 19.4,26.8 16.8,26.3 C14.8,25.9 13.1,25.4 11.6,24.8 C10.8,24.5 9.9,24.1 9,23.6 C8.9,23.5 8.8,23.5 8.7,23.4 C8.6,23.4 8.6,23.3 8.6,23.3 C8,22.9 7.6,22.7 7.6,22.7 C7.6,22.7 9.3,25.5 13.8,26.8 C12.7,28.1 11.4,29.7 11.4,29.7 C3.6,29.5 0.6,24.4 0.6,24.4 C0.6,13.1 5.7,4 5.7,4 C10.8,0.2 15.6,0.29975 15.6,0.29975 L16,0.7 C9.6,2.5 6.8,5.3 6.8,5.3 C6.8,5.3 7.6,4.9 8.9,4.3 C12.7,2.6 15.7,2.2 16.9,2.1 C17.1,2.1 17.3,2 17.5,2 C19.7,1.7 22.1,1.6 24.6,1.9 C28,2.3 31.6,3.3 35.2,5.3 C35.2,5.3 32.4,2.7 26.4,0.9 L26.9,0.29975 C26.9,0.29975 31.7,0.2 36.8,4 C36.8,4 41.9,13.1 41.9,24.4 C41.8,24.4 38.8,29.5 31,29.7 L31,29.7 Z" id="Path" fill="#000000"></path>
            <path d="M27.5,13.4 C25.5,13.4 23.9,15.1 23.9,17.3 C23.9,19.5 25.5,21.2 27.5,21.2 C29.5,21.2 31.1,19.5 31.1,17.3 C31.1,15.1 29.5,13.4 27.5,13.4 Z M14.6,13.4 C12.6,13.4 11,15.1 11,17.3 C11,19.5 12.6,21.2 14.6,21.2 C16.6,21.2 18.2,19.5 18.2,17.3 C18.2,15.1 16.6,13.4 14.6,13.4 Z" id="Shape" fill="#D5A642"></path>
        </g>
    </g>
</svg>