<?xml version="1.0" encoding="UTF-8"?>
<svg width="40px" height="34px" viewBox="0 0 40 34" version="1.1" xmlns="http://www.w3.org/2000/svg" xmlns:xlink="http://www.w3.org/1999/xlink">
    <!-- Generator: Sketch 55.2 (78181) - https://sketchapp.com -->
    <title>Shape</title>
    <desc>Created with Sketch.</desc>
    <g id="Page-1" stroke="none" stroke-width="1" fill="none" fill-rule="evenodd">
        <g id="telegram-yellow-round-icon" fill="#000000" fill-rule="nonzero">
            <path d="M39.7,2.8 C39.6,4.2 38.8,9.2 38,14.5 L35.5,30.4 C35.5,30.4 35.3,32.7 33.6,33.1 C31.9,33.5 29,31.7 28.5,31.3 C28.1,31 20.9,26.4 18.3,24.2 C17.6,23.6 16.8,22.4 18.4,21 C22,17.7 26.4,13.5 29,10.9 C30.2,9.7 31.4,6.9 26.4,10.3 L12.1,19.9 C12.1,19.9 10.5,20.9 7.4,20 C4.4,19.1 0.8,17.9 0.8,17.9 C0.8,17.9 -1.6,16.4 2.5,14.8 L26.1,5 C28.4,4 36.3,0.8 36.3,0.8 C36.3,0.8 40,-0.7 39.7,2.8 Z" id="Shape"></path>
        </g>
    </g>
</svg>