<?xml version="1.0" encoding="UTF-8"?>
<svg width="70px" height="58px" viewBox="0 0 70 58" version="1.1" xmlns="http://www.w3.org/2000/svg" xmlns:xlink="http://www.w3.org/1999/xlink">
    <!-- Generator: Sketch 55.2 (78181) - https://sketchapp.com -->
    <title>Path</title>
    <desc>Created with Sketch.</desc>
    <g id="Page-1" stroke="none" stroke-width="1" fill="none" fill-rule="evenodd">
        <g id="twitter-yellow-round-icon" fill="#000000" fill-rule="nonzero">
            <path d="M62.8,16.6 C62.8,35.6 48.4,57.4 22,57.4 C13.9,57.4 6.3,55 0,51 C1.2,51.1 2.3,51.2 3.5,51.2 C10.2,51.2 16.4,48.9 21.3,45.1 C15,44.9 9.7,40.8 7.9,35.1 C8.8,35.2 9.7,35.3 10.6,35.3 C11.9,35.3 13.2,35.1 14.4,34.8 C7.8,33.5 2.8,27.7 2.8,20.7 L2.8,20.5 C4.7,21.6 6.9,22.2 9.3,22.3 C5.4,19.7 2.9,15.3 2.9,10.4 C2.9,7.7 3.6,5.3 4.9,3.2 C12,11.9 22.6,17.6 34.5,18.2 C34.3,17.1 34.1,16 34.1,14.9 C34.1,7 40.5,0.6 48.4,0.6 C52.5,0.6 56.3,2.3 58.9,5.1 C62.1,4.5 65.3,3.3 68,1.6 C66.9,4.9 64.7,7.7 61.7,9.5 C64.6,9.2 67.4,8.4 70,7.3 C68,10.1 65.6,12.7 62.8,14.7 C62.8,15.4 62.8,16 62.8,16.6 Z" id="Path"></path>
        </g>
    </g>
</svg>