<?xml version="1.0" encoding="utf-8"?>
<!-- Generator: Adobe Illustrator 25.1.0, SVG Export Plug-In . SVG Version: 6.00 Build 0)  -->
<svg version="1.1" id="Layer_1" xmlns="http://www.w3.org/2000/svg" xmlns:xlink="http://www.w3.org/1999/xlink" x="0px" y="0px"
	 viewBox="0 0 36 36" style="enable-background:new 0 0 36 36;" xml:space="preserve">
<g>
	<path d="M17.8,36c-4.4,0-8.6-1.6-11.9-4.5c-0.7-0.6-0.7-1.6-0.1-2.3c0.6-0.7,1.6-0.7,2.3-0.1c2.7,2.4,6.2,3.7,9.7,3.7
		c8.1,0,14.8-6.6,14.8-14.8S26,3.2,17.8,3.2c-0.9,0-1.6-0.7-1.6-1.6S16.9,0,17.8,0c9.9,0,18,8.1,18,18C35.8,27.9,27.7,36,17.8,36z"
		/>
	<path d="M11.2,5c0.8-0.4,1.1-1.4,0.7-2.2C11.5,2,10.5,1.7,9.7,2.1c-1.1,0.6-2.2,1.2-3.1,2C6.2,4.4,6,4.9,6,5.3C6,6.2,6.6,7,7.5,7
		c0.4,0,0.8-0.1,1.1-0.4C9.4,6,10.3,5.5,11.2,5C11.2,5,11.2,5,11.2,5z"/>
	<path d="M1.5,19c-0.9,0.2-1.5,1-1.3,1.9c0.2,1.2,0.5,2.4,1,3.6c0.2,0.6,0.8,1,1.4,1c0.2,0,0.4,0,0.7-0.1c0,0,0,0,0,0
		c0.8-0.3,1.2-1.3,0.9-2.1c-0.4-1-0.6-2-0.8-3c0,0,0,0,0,0C3.3,19.5,2.4,18.9,1.5,19C1.5,19,1.5,19,1.5,19z"/>
	<path d="M4.9,11.4c0.3-0.8,0-1.6-0.7-2C3.4,8.9,2.4,9.2,2,9.9c-0.6,1.1-1.1,2.3-1.4,3.5c0,0,0,0,0,0c-0.2,0.9,0.3,1.8,1.2,2l0.3,0
		c0.8,0.1,1.5-0.4,1.7-1.2C4,13.3,4.4,12.3,4.9,11.4z"/>
	<path d="M19,18v-5.7c0-0.9-0.7-1.6-1.6-1.6s-1.6,0.7-1.6,1.6v6.5c0,0.5,0.3,1,0.7,1.3l4.9,3.2c0.3,0.2,0.6,0.3,0.9,0.3
		c0.9,0,1.6-0.7,1.6-1.6c0-0.5-0.3-1-0.7-1.3L19,18z"/>
</g>
</svg>
