<?xml version="1.0" encoding="utf-8"?>
<!-- Generator: Adobe Illustrator 25.3.1, SVG Export Plug-In . SVG Version: 6.00 Build 0)  -->
<svg version="1.1" id="Laag_1" xmlns="http://www.w3.org/2000/svg" xmlns:xlink="http://www.w3.org/1999/xlink" x="0px" y="0px"
	 viewBox="0 0 38 38" style="enable-background:new 0 0 38 38;" xml:space="preserve">
<g>
	<path d="M19,1C9.1,1,1,9.1,1,19s8.1,18,18,18c9.9,0,18-8.1,18-18S28.9,1,19,1z M19,3.9c8.3,0,15.1,6.8,15.1,15.1
		c0,8.3-6.8,15.1-15.1,15.1c-8.3,0-15.1-6.8-15.1-15.1C3.9,10.7,10.7,3.9,19,3.9z"/>
	<polygon points="19.6,24.8 15.3,20.4 28.4,20.4 28.4,17.6 15.3,17.6 19.6,13.2 17.6,11.2 10.6,18.2 10.6,19.8 17.6,26.8 	"/>
</g>
</svg>
