<?xml version="1.0" encoding="utf-8"?>
<!-- Generator: Adobe Illustrator 25.3.1, SVG Export Plug-In . SVG Version: 6.00 Build 0)  -->
<svg version="1.1" id="Laag_1" xmlns="http://www.w3.org/2000/svg" xmlns:xlink="http://www.w3.org/1999/xlink" x="0px" y="0px"
	 viewBox="0 0 38 38" style="enable-background:new 0 0 38 38;" xml:space="preserve">
<g>
	<g>
		<g>
			<path d="M19,9.3c-1.3,0-2.4,1.1-2.4,2.4s1.1,2.4,2.4,2.4s2.4-1.1,2.4-2.4S20.3,9.3,19,9.3z"/>
		</g>
		<g>
			<path d="M19,16.6c-1.1,0-2,0.9-2,2v8.2c0,1.1,0.9,2,2,2s2-0.9,2-2v-8.2C21,17.5,20.1,16.6,19,16.6z"/>
		</g>
		<g>
			<path d="M19,1.1C9.1,1.1,1.1,9.1,1.1,19c0,9.9,8,17.9,17.9,17.9s17.9-8,17.9-17.9C36.9,9.1,28.9,1.1,19,1.1z M18.9,34
				c-3.8,0-7.6-1.4-10.5-4.3C2.6,24,2.5,14.5,8.3,8.6c0.1-0.1,0.1-0.1,0.2-0.2c5.8-5.9,15.2-5.9,21.1-0.2c2.8,2.8,4.4,6.5,4.5,10.5
				c0,4-1.5,7.7-4.3,10.6l-0.2,0.2C26.6,32.5,22.8,34,18.9,34z"/>
		</g>
		<g>
			<path d="M19,1.1C9.1,1.1,1.1,9.1,1.1,19c0,9.9,8,17.9,17.9,17.9s17.9-8,17.9-17.9C36.9,9.1,28.9,1.1,19,1.1z M18.9,34
				c-3.8,0-7.6-1.4-10.5-4.3C2.6,24,2.5,14.5,8.3,8.6c0.1-0.1,0.1-0.1,0.2-0.2c5.8-5.9,15.2-5.9,21.1-0.2c2.8,2.8,4.4,6.5,4.5,10.5
				c0,4-1.5,7.7-4.3,10.6l-0.2,0.2C26.6,32.5,22.8,34,18.9,34z"/>
		</g>
	</g>
</g>
</svg>
