<?xml version="1.0" encoding="utf-8"?>
<!-- Generator: Adobe Illustrator 25.3.1, SVG Export Plug-In . SVG Version: 6.00 Build 0)  -->
<svg version="1.1" id="Laag_1" xmlns="http://www.w3.org/2000/svg" xmlns:xlink="http://www.w3.org/1999/xlink" x="0px" y="0px"
	 viewBox="0 0 38 38" style="enable-background:new 0 0 38 38;" xml:space="preserve">
<g transform="translate(0,-290.64999)">
	<g>
		<path d="M19,291.8c-4.8,0-9.2,1.9-12.6,5.2c-3.4,3.4-5.2,7.8-5.2,12.6c0,9.8,8,17.8,17.8,17.8c9.8,0,17.8-8,17.8-17.8
			c0-0.6-0.2-1-0.7-1.3c-0.5-0.3-1.1-0.3-1.6,0c-0.4,0.3-0.7,0.7-0.7,1.3c0,8.2-6.7,14.9-14.9,14.9s-14.9-6.7-14.9-14.9
			c0-8.2,6.7-14.9,14.9-14.9c4.7,0,9.1,2.2,11.9,6c0.5,0.6,1.1,0.7,1.6,0.5c0.5-0.2,1-0.6,1-1.4v-6.6c0-0.4-0.1-0.8-0.4-1.1
			c-0.3-0.3-0.6-0.4-1-0.4c0,0,0,0,0,0c-0.8,0-1.5,0.7-1.4,1.5v2.9l-0.3-0.2C27.1,293.3,23.1,291.8,19,291.8
			C19,291.8,19,291.8,19,291.8z M19,298.4c-3,0-5.9,1.2-8,3.3c-2.1,2.1-3.3,5-3.3,8c0,3,1.2,5.9,3.3,8s5,3.3,8,3.3
			c3,0,5.9-1.2,8-3.3c2.1-2.1,3.3-5,3.3-8c0-3-1.2-5.9-3.3-8C24.9,299.6,22,298.4,19,298.4C19,298.4,19,298.4,19,298.4z M23.9,316.4
			c-0.5,0-0.9-0.2-1.3-0.6l-4.9-4.9c-0.3-0.3-0.5-0.8-0.5-1.3v-6.5c0-0.5,0.2-0.9,0.5-1.3c0.3-0.3,0.8-0.5,1.3-0.5l0,0c0,0,0,0,0,0
			c0.5,0,0.9,0.2,1.3,0.5c0.3,0.4,0.5,0.8,0.5,1.3v5.8l4.4,4.4c0.8,0.8,0.6,1.9,0,2.6C24.9,316.2,24.4,316.4,23.9,316.4
			C24,316.4,23.9,316.4,23.9,316.4z"/>
	</g>
</g>
</svg>
