<?xml version="1.0" encoding="utf-8"?>
<!-- Generator: Adobe Illustrator 25.3.1, SVG Export Plug-In . SVG Version: 6.00 Build 0)  -->
<svg version="1.1" id="Laag_1" xmlns="http://www.w3.org/2000/svg" xmlns:xlink="http://www.w3.org/1999/xlink" x="0px" y="0px"
	 viewBox="0 0 38 38" style="enable-background:new 0 0 38 38;" xml:space="preserve">
<g>
	<g>
		<path d="M18.5,1.2c-0.3,0.4-6.4,10.4-6.4,14c0,3.8,3.1,6.9,6.9,6.9s6.9-3.1,6.9-6.9c0-3.6-6.2-13.6-6.4-14
			C19.2,0.9,18.7,0.9,18.5,1.2z"/>
	</g>
	<g>
		<path d="M15.3,30.1c0-3.6-6.2-13.6-6.4-14c-0.2-0.3-0.7-0.3-0.9,0c-0.3,0.4-6.4,10.4-6.4,14c0,3.8,3.1,6.9,6.9,6.9
			S15.3,33.9,15.3,30.1z"/>
	</g>
	<g>
		<path d="M29.1,16.1c-0.3,0.4-6.4,10.4-6.4,14c0,3.8,3.1,6.9,6.9,6.9s6.9-3.1,6.9-6.9c0-3.6-6.2-13.6-6.4-14
			C29.8,15.8,29.3,15.8,29.1,16.1z"/>
	</g>
</g>
</svg>
