<svg version="1.1" id="Laag_1" xmlns="http://www.w3.org/2000/svg" x="0" y="0" viewBox="0 0 70 70" xml:space="preserve"><style>.st0{fill:#d5a642}</style><path class="st0" d="M58.6 0H11.3c-4 0-7.2 3.2-7.2 7.2v47.3c0 4 3.2 7.2 7.2 7.2h40l-1.9-6.5 4.5 4.2 4.3 3.9 7.6 6.6V7.2c.1-4-3.2-7.2-7.2-7.2zM45 45.7s-1.3-1.5-2.3-2.8c4.6-1.3 6.4-4.2 6.4-4.2-1.4 1-2.8 1.6-4.1 2.1-1.8.7-3.5 1.2-5.1 1.5-3.4.6-6.5.5-9.1 0-2-.4-3.7-.9-5.2-1.5-.8-.3-1.7-.7-2.6-1.2-.1-.1-.2-.1-.3-.2-.1 0-.1-.1-.1-.1-.6-.4-1-.6-1-.6s1.7 2.8 6.2 4.1c-1.1 1.3-2.4 2.9-2.4 2.9-7.8-.2-10.8-5.3-10.8-5.3 0-11.3 5.1-20.4 5.1-20.4 5.1-3.8 9.9-3.7 9.9-3.7l.4.4c-6.4 1.8-9.2 4.6-9.2 4.6s.8-.4 2.1-1c3.8-1.7 6.8-2.1 8-2.2.2 0 .4-.1.6-.1 2.2-.3 4.6-.4 7.1-.1 3.4.4 7 1.4 10.6 3.4 0 0-2.8-2.6-8.8-4.4l.5-.6s4.8-.1 9.9 3.7c0 0 5.1 9.1 5.1 20.4-.1 0-3.1 5.1-10.9 5.3z"/><path class="st0" d="M41.5 29.4c-2 0-3.6 1.7-3.6 3.9s1.6 3.9 3.6 3.9 3.6-1.7 3.6-3.9-1.6-3.9-3.6-3.9zm-12.9 0c-2 0-3.6 1.7-3.6 3.9s1.6 3.9 3.6 3.9 3.6-1.7 3.6-3.9-1.6-3.9-3.6-3.9z"/></svg>