<?xml version="1.0" encoding="UTF-8"?>
<svg width="150px" height="150px" viewBox="0 0 150 150" version="1.1" xmlns="http://www.w3.org/2000/svg" xmlns:xlink="http://www.w3.org/1999/xlink">
    <!-- Generator: Sketch 55.2 (78181) - https://sketchapp.com -->
    <title>Combined Shape</title>
    <desc>Created with Sketch.</desc>
    <g id="Page-1" stroke="none" stroke-width="1" fill="none" fill-rule="evenodd">
        <g id="instagram-yellow-round-icon" fill="#000000" fill-rule="nonzero">
            <path d="M75,13.51 C54.97,13.51 52.6,13.59 44.69,13.95 C37.37,14.28 33.4,15.5 30.76,16.53 C27.26,17.89 24.76,19.52 22.14,22.14 C19.52,24.76 17.89,27.26 16.53,30.76 C15.51,33.41 14.28,37.38 13.95,44.69 C13.59,52.6 13.51,54.97 13.51,75 C13.51,95.03 13.59,97.4 13.95,105.31 C14.28,112.63 15.5,116.6 16.53,119.24 C17.89,122.74 19.52,125.24 22.14,127.86 C24.76,130.48 27.26,132.11 30.76,133.47 C33.41,134.49 37.38,135.72 44.69,136.05 C52.6,136.41 54.97,136.49 75,136.49 C95.03,136.49 97.4,136.41 105.31,136.05 C112.63,135.72 116.6,134.5 119.24,133.47 C122.74,132.11 125.24,130.48 127.86,127.86 C130.48,125.24 132.11,122.74 133.47,119.24 C134.49,116.59 135.72,112.62 136.05,105.31 C136.41,97.4 136.49,95.03 136.49,75 C136.49,54.97 136.41,52.6 136.05,44.69 C135.72,37.37 134.5,33.4 133.47,30.76 C132.11,27.26 130.48,24.76 127.86,22.14 C125.24,19.52 122.74,17.89 119.24,16.53 C116.59,15.51 112.62,14.28 105.31,13.95 C97.4,13.59 95.03,13.51 75,13.51 Z M75,0 C95.37,0 97.92,0.09 105.92,0.45 C113.91,0.82 119.36,2.09 124.13,3.94 C129.06,5.86 133.24,8.42 137.41,12.59 C141.58,16.76 144.14,20.94 146.06,25.87 C147.92,30.65 149.19,36.1 149.55,44.08 C149.91,52.08 150,54.63 150,75 C150,95.37 149.91,97.92 149.55,105.92 C149.18,113.91 147.91,119.36 146.06,124.13 C144.14,129.06 141.58,133.24 137.41,137.41 C133.24,141.58 129.06,144.14 124.13,146.06 C119.35,147.92 113.9,149.19 105.92,149.55 C97.92,149.91 95.37,150 75,150 C54.63,150 52.08,149.92 44.08,149.55 C36.09,149.18 30.64,147.91 25.87,146.06 C20.94,144.14 16.76,141.58 12.59,137.41 C8.42,133.24 5.86,129.06 3.94,124.13 C2.08,119.35 0.81,113.9 0.45,105.92 C0.09,97.92 0,95.37 0,75 C0,54.63 0.09,52.08 0.45,44.08 C0.82,36.09 2.09,30.64 3.94,25.87 C5.86,20.94 8.42,16.76 12.59,12.59 C16.76,8.42 20.94,5.86 25.87,3.94 C30.65,2.08 36.1,0.81 44.08,0.45 C52.08,0.09 54.63,0 75,0 Z M75,36.49 C96.27,36.49 113.51,53.73 113.51,75 C113.51,96.27 96.27,113.51 75,113.51 C53.73,113.51 36.49,96.27 36.49,75 C36.49,53.73 53.73,36.49 75,36.49 Z M75,100 C88.81,100 100,88.81 100,75 C100,61.19 88.81,50 75,50 C61.19,50 50,61.19 50,75 C50,88.81 61.19,100 75,100 Z M115.04,43.96 C110.069437,43.96 106.04,39.9305627 106.04,34.96 C106.04,29.9894373 110.069437,25.96 115.04,25.96 C120.010563,25.96 124.04,29.9894373 124.04,34.96 C124.04,39.9305627 120.010563,43.96 115.04,43.96 Z" id="Combined-Shape"></path>
        </g>
    </g>
</svg>