<?xml version="1.0" encoding="UTF-8"?>
<svg width="62px" height="56px" viewBox="0 0 62 56" version="1.1" xmlns="http://www.w3.org/2000/svg" xmlns:xlink="http://www.w3.org/1999/xlink">
    <!-- Generator: Sketch 55.2 (78181) - https://sketchapp.com -->
    <title>opensea</title>
    <desc>Created with Sketch.</desc>
    <g id="Page-1" stroke="none" stroke-width="1" fill="none" fill-rule="evenodd">
        <g id="opensea" fill="#000000" fill-rule="nonzero">
            <path d="M3.6679,31.6801 L3.8836,31.341 L16.8906,10.9932 C17.0807,10.6953 17.5276,10.7261 17.6714,11.0497 C19.8444,15.9196 21.7194,21.9762 20.841,25.7468 C20.466,27.2982 19.4386,29.3992 18.2827,31.341 C18.1338,31.6236 17.9694,31.901 17.7947,32.1681 C17.7125,32.2914 17.5738,32.3633 17.4248,32.3633 L4.048,32.3633 C3.6884,32.3633 3.4778,31.9729 3.6679,31.6801 Z M61.6444,35.461 L61.6444,38.6819 C61.6444,38.8668 61.5314,39.0312 61.367,39.1031 C60.3602,39.5346 56.9132,41.1168 55.48,43.11 C51.8224,48.2008 49.0279,55.48 42.7812,55.48 L16.721,55.48 C7.4847,55.48 0,47.9697 0,38.7024 L0,38.4045 C0,38.1579 0.2003,37.9576 0.4469,37.9576 L14.9745,37.9576 C15.2621,37.9576 15.4727,38.2247 15.4471,38.5072 C15.3443,39.4524 15.519,40.4182 15.9659,41.2966 C16.8289,43.0484 18.6166,44.1426 20.5481,44.1426 L27.74,44.1426 L27.74,38.5278 L20.6303,38.5278 C20.2656,38.5278 20.0499,38.1065 20.2605,37.8086 C20.3375,37.6904 20.4249,37.5672 20.5173,37.4285 C21.1903,36.473 22.1509,34.9884 23.1064,33.2983 C23.7588,32.1579 24.3906,30.9404 24.8992,29.7178 C25.002,29.4969 25.0841,29.2708 25.1663,29.0499 C25.305,28.6595 25.4489,28.2948 25.5516,27.9301 C25.6544,27.6218 25.7365,27.2982 25.8187,26.9951 C26.0602,25.9574 26.1629,24.8581 26.1629,23.7177 C26.1629,23.2708 26.1424,22.8033 26.1013,22.3564 C26.0807,21.8684 26.0191,21.3803 25.9574,20.8923 C25.9163,20.4608 25.8393,20.0344 25.7571,19.5875 C25.6544,18.9351 25.5105,18.2879 25.3461,17.6354 L25.2896,17.3889 C25.1663,16.9419 25.0636,16.5156 24.9198,16.0687 C24.5139,14.6662 24.0465,13.2998 23.5533,12.0207 C23.3735,11.5121 23.168,11.0241 22.9625,10.5361 C22.6595,9.8015 22.3512,9.1337 22.0687,8.5018 C21.9249,8.2141 21.8016,7.9521 21.6783,7.685 C21.5396,7.3819 21.3958,7.0788 21.2519,6.7912 C21.1492,6.5703 21.031,6.3648 20.9488,6.1593 L20.0704,4.536 C19.9471,4.3151 20.1526,4.0531 20.394,4.1199 L25.8907,5.6096 L25.9061,5.6096 C25.9163,5.6096 25.9215,5.6148 25.9266,5.6148 L26.6509,5.8151 L27.4472,6.0412 L27.74,6.1233 L27.74,2.8562 C27.74,1.2791 29.0037,0 30.5654,0 C31.3462,0 32.0551,0.3185 32.5637,0.8373 C33.0722,1.3562 33.3907,2.0651 33.3907,2.8562 L33.3907,7.7056 L33.9764,7.8699 C34.0226,7.8854 34.0688,7.9059 34.1099,7.9367 C34.2538,8.0446 34.4592,8.2038 34.7212,8.3991 C34.9267,8.5634 35.1476,8.7638 35.4147,8.9693 C35.9438,9.3956 36.5757,9.9453 37.2692,10.5772 C37.4541,10.7364 37.6339,10.9008 37.7983,11.0652 C38.6922,11.8974 39.6939,12.8734 40.6494,13.9522 C40.9165,14.2553 41.1785,14.5635 41.4456,14.8871 C41.7127,15.2159 41.9953,15.5395 42.2418,15.8632 C42.5655,16.2947 42.9148,16.7416 43.2179,17.2091 C43.3617,17.43 43.5261,17.656 43.6648,17.8769 C44.0552,18.4676 44.3994,19.079 44.7282,19.6903 C44.8669,19.9728 45.0107,20.281 45.134,20.5841 C45.4987,21.4009 45.7864,22.2331 45.9713,23.0653 C46.0278,23.2451 46.0689,23.4403 46.0895,23.615 L46.0895,23.6561 C46.1511,23.9026 46.1717,24.1646 46.1922,24.4317 C46.2744,25.2845 46.2333,26.1372 46.0484,26.9951 C45.9713,27.3599 45.8686,27.704 45.7453,28.0688 C45.622,28.4181 45.4987,28.7828 45.3395,29.127 C45.0313,29.841 44.6665,30.5551 44.235,31.2229 C44.0963,31.4695 43.9319,31.7315 43.7675,31.9781 C43.5877,32.24 43.4028,32.4866 43.2384,32.7281 C43.0124,33.0363 42.771,33.3599 42.5244,33.6476 C42.3035,33.9507 42.0775,34.2538 41.8309,34.5209 C41.4867,34.9267 41.1579,35.312 40.8137,35.6819 C40.6083,35.9233 40.3874,36.1699 40.1613,36.3908 C39.9405,36.6373 39.7144,36.8582 39.5089,37.0637 C39.1648,37.4079 38.8771,37.675 38.6356,37.8959 L38.0706,38.4148 C37.9884,38.4867 37.8805,38.5278 37.7675,38.5278 L33.3907,38.5278 L33.3907,44.1426 L38.8976,44.1426 C40.1305,44.1426 41.3018,43.7059 42.247,42.9045 C42.5706,42.622 43.9833,41.3994 45.6528,39.5552 C45.7093,39.4935 45.7813,39.4473 45.8635,39.4268 L61.0742,35.0295 C61.3568,34.9473 61.6444,35.163 61.6444,35.461 Z" id="Combined-Shape"></path>
        </g>
    </g>
</svg>