<svg class="interactable" xmlns="http://www.w3.org/2000/svg" viewBox="0 0 49 49">
    <g fill="#d5a642">
        <path d="M30.7 17.9c1.4 0 2.6-1.2 2.6-2.6s-1.2-2.6-2.6-2.6c-1.4 0-2.6 1.2-2.6 2.6s1.1 2.6 2.6 2.6zM14.2 22c-1.4 0-2.6 1.2-2.6 2.6 0 1.4 1.2 2.6 2.6 2.6s2.6-1.2 2.6-2.6c0-1.5-1.2-2.6-2.6-2.6z"/>
        <path d="M24.5 0C11 0 0 11 0 24.5S11 49 24.5 49 49 38 49 24.5 38 0 24.5 0zm-4.8 25.9 7 3.9c1.1-1.1 2.5-1.6 4-1.6 3.1 0 5.7 2.5 5.7 5.7 0 3.1-2.5 5.7-5.7 5.7-.4 0-.9-.1-1.3-.2-3-.7-4.9-3.8-4.2-6.8l-7-3.9c-2.2 2.2-5.8 2.2-8 0s-2.2-5.8 0-8 5.8-2.2 8 0l7-3.9c-.5-1.9.1-4 1.5-5.4 2.2-2.2 5.9-2.2 8.1 0s2.2 5.9 0 8.1-5.9 2.2-8.1 0l-7 3.9c.2.7.2 1.6 0 2.5z"/>
        <path d="M30.7 36.4c1.4 0 2.6-1.2 2.6-2.6 0-1.4-1.2-2.6-2.6-2.6-1.4 0-2.6 1.2-2.6 2.6 0 1.4 1.1 2.6 2.6 2.6z"/>
    </g>
</svg>