<?xml version="1.0" encoding="utf-8"?>
<!-- Generator: Adobe Illustrator 25.1.0, SVG Export Plug-In . SVG Version: 6.00 Build 0)  -->
<svg version="1.1" id="Layer_1" xmlns="http://www.w3.org/2000/svg" xmlns:xlink="http://www.w3.org/1999/xlink" x="0px" y="0px"
	 viewBox="0 0 80 80" style="enable-background:new 0 0 80 80;" xml:space="preserve">
<style type="text/css">
	.st0{fill:#7B3FE4;}
	.st1{fill:#FFFFFF;}
</style>
<circle class="st0" cx="40" cy="40" r="40"/>
<path class="st1" d="M66.7,40.9V53c0,0.8-0.2,1.5-0.6,2.1c-0.4,0.7-0.9,1.2-1.6,1.6l-10.4,6c-0.6,0.4-1.4,0.6-2.1,0.6
	c-0.8,0-1.5-0.2-2.1-0.6l-10.4-6c-0.6-0.4-1.2-0.9-1.6-1.6c-0.4-0.7-0.6-1.4-0.6-2.1v-3.4l5.3-3.1v5.9l9.3,5.4l9.3-5.4V41.5L52,36.1
	L30.1,48.8c-0.7,0.4-1.4,0.6-2.1,0.6c-0.7,0-1.5-0.2-2.1-0.6l-10.4-6c-0.6-0.4-1.2-0.9-1.5-1.6c-0.4-0.7-0.6-1.4-0.6-2.1V27
	c0-0.8,0.2-1.5,0.6-2.1c0.4-0.7,0.9-1.2,1.6-1.6l10.4-6c0.6-0.4,1.4-0.6,2.1-0.6c0.8,0,1.5,0.2,2.1,0.6l10.4,6
	c0.6,0.4,1.2,0.9,1.6,1.6c0.4,0.7,0.6,1.4,0.6,2.1v3.4l-5.4,3.1v-5.9L28,22.2l-9.3,5.4v10.8l9.3,5.4l21.9-12.7
	c0.7-0.4,1.4-0.6,2.1-0.6c0.7,0,1.5,0.2,2.1,0.6l10.4,6c0.6,0.4,1.2,0.9,1.5,1.6C66.5,39.4,66.7,40.2,66.7,40.9z"/>
</svg>
