<svg xmlns="http://www.w3.org/2000/svg" xmlns:xlink="http://www.w3.org/1999/xlink" viewBox="0 0 365.55 392.75"><defs><style>.cls-1{fill:#fff8eb;}.cls-2{fill:#c49b64;}.cls-3{fill:#bf1810;}.cls-4{fill:#0e00fa;}.cls-5{fill:#7700fa;}.cls-6{fill:url(#linear-gradient);}.cls-41,.cls-7{fill:#fff;}.cls-8{fill:url(#linear-gradient-2);}.cls-9{fill:url(#linear-gradient-3);}.cls-10,.cls-15{fill:#d6a642;}.cls-11{fill:#b98f39;}.cls-12{fill:url(#linear-gradient-4);}.cls-13{fill:url(#linear-gradient-5);}.cls-14{fill:url(#linear-gradient-6);}.cls-15,.cls-40{stroke:#000;}.cls-15{stroke-width:0.12px;}.cls-16{fill:url(#linear-gradient-7);}.cls-17{fill:url(#linear-gradient-8);}.cls-18{fill:url(#linear-gradient-9);}.cls-19{fill-opacity:0.91;}.cls-20{fill:#e3d1a9;}.cls-21{fill:#cfbe9a;}.cls-22{fill:url(#linear-gradient-10);}.cls-23{fill:url(#linear-gradient-11);}.cls-24{fill:url(#linear-gradient-12);}.cls-25{fill:url(#linear-gradient-13);}.cls-26{fill:url(#linear-gradient-14);}.cls-27{fill:#9b3723;}.cls-28{fill:#a85439;}.cls-29{fill:#e0e0e0;}.cls-30{fill:#c9c9c9;}.cls-31{fill:url(#linear-gradient-15);}.cls-32{fill:url(#linear-gradient-16);}.cls-33{fill:url(#linear-gradient-17);}.cls-34{fill:url(#linear-gradient-18);}.cls-35{fill:url(#linear-gradient-19);}.cls-36{fill:url(#linear-gradient-20);}.cls-37{fill:#07b010;}.cls-38{fill:#ff7002;}.cls-39{fill:#ffe212;}.cls-40{fill:#e6e6e6;stroke-linejoin:round;stroke-width:2.48px;}.cls-40,.cls-41{fill-rule:evenodd;}.cls-42{fill:#d5a642;}</style><linearGradient id="linear-gradient" x1="-146882.72" y1="-86369.09" x2="-147217.45" y2="-86793.07" gradientTransform="matrix(0.07, 0, 0, -0.07, 5273.22, 148.05)" gradientUnits="userSpaceOnUse"><stop offset="0" stop-color="#cfbe9a"/><stop offset="1" stop-color="#fde9bc"/></linearGradient><linearGradient id="linear-gradient-2" x1="-580531.47" y1="59527.02" x2="-580224.18" y2="58983.36" gradientTransform="matrix(0.02, 0, 0, -0.02, 10252.07, 1209.44)" xlink:href="#linear-gradient"/><linearGradient id="linear-gradient-3" x1="-582657.41" y1="59419.8" x2="-582991.71" y2="58996.37" gradientTransform="matrix(0.02, 0, 0, -0.02, 10252.07, 1209.44)" xlink:href="#linear-gradient"/><linearGradient id="linear-gradient-4" x1="-584091.89" y1="60552.31" x2="-584426.19" y2="60128.88" gradientTransform="matrix(0.02, 0, 0, -0.02, 10252.07, 1209.44)" xlink:href="#linear-gradient"/><linearGradient id="linear-gradient-5" x1="-584618.69" y1="60968.23" x2="-584952.98" y2="60544.81" gradientTransform="matrix(0.02, 0, 0, -0.02, 10252.07, 1209.44)" xlink:href="#linear-gradient"/><linearGradient id="linear-gradient-6" x1="-146819.28" y1="-86416.13" x2="-147154.02" y2="-86840.12" gradientTransform="matrix(0.07, 0, 0, -0.07, 5271.22, 146.89)" xlink:href="#linear-gradient"/><linearGradient id="linear-gradient-7" x1="928.9" y1="-520.39" x2="973.88" y2="-695.76" gradientTransform="matrix(0.25, 0, 0, -0.25, 106.6, 213.91)" xlink:href="#linear-gradient"/><linearGradient id="linear-gradient-8" x1="471.08" y1="-609.39" x2="542.88" y2="-620.44" gradientTransform="matrix(0.25, 0, 0, -0.25, 103.92, 213.91)" xlink:href="#linear-gradient"/><linearGradient id="linear-gradient-9" x1="-77130.44" y1="-2222.35" x2="-76984.82" y2="-2254.44" gradientTransform="matrix(0.07, 0, 0, -0.07, 5274.67, 162.82)" xlink:href="#linear-gradient"/><linearGradient id="linear-gradient-10" x1="-76094.59" y1="-1547.83" x2="-75837.78" y2="-1463.57" gradientTransform="matrix(0.07, 0, 0, -0.07, 5274.67, 162.82)" xlink:href="#linear-gradient"/><linearGradient id="linear-gradient-11" x1="787" y1="-150.55" x2="787.98" y2="-169.88" gradientTransform="matrix(0.25, 0, 0, -0.25, 119.36, 196.81)" xlink:href="#linear-gradient"/><linearGradient id="linear-gradient-12" x1="729.31" y1="-153.49" x2="730.29" y2="-172.82" gradientTransform="matrix(0.25, 0, 0, -0.25, 119.36, 196.81)" xlink:href="#linear-gradient"/><linearGradient id="linear-gradient-13" x1="-76028.78" y1="-86.58" x2="-76079.4" y2="-196.53" gradientTransform="matrix(0.07, 0, 0, -0.07, 5274.67, 162.82)" xlink:href="#linear-gradient"/><linearGradient id="linear-gradient-14" x1="-75594.13" y1="-661.9" x2="-75473.2" y2="-733.48" gradientTransform="matrix(0.07, 0, 0, -0.07, 5274.67, 162.82)" xlink:href="#linear-gradient"/><linearGradient id="linear-gradient-15" x1="-585187.91" y1="61417.64" x2="-585522.21" y2="60994.21" gradientTransform="matrix(0.02, 0, 0, -0.02, 10252.07, 1209.44)" xlink:href="#linear-gradient"/><linearGradient id="linear-gradient-16" x1="-585013.32" y1="61279.78" x2="-585347.62" y2="60856.35" gradientTransform="matrix(0.02, 0, 0, -0.02, 10252.07, 1209.44)" xlink:href="#linear-gradient"/><linearGradient id="linear-gradient-17" x1="-227.16" y1="764.84" x2="-210.07" y2="760.86" gradientTransform="matrix(3.51, 0.38, 0.38, -3.51, 733.24, 2826.39)" gradientUnits="userSpaceOnUse"><stop offset="0" stop-color="#cfbe9a"/><stop offset="1" stop-color="#fff"/></linearGradient><linearGradient id="linear-gradient-18" x1="-488.48" y1="668.87" x2="-474.34" y2="659.81" gradientTransform="matrix(3.33, 1.07, 1.09, -3.16, 1147.51, 2691.1)" gradientUnits="userSpaceOnUse"><stop offset="0" stop-color="#2f2f2f"/><stop offset="1"/></linearGradient><linearGradient id="linear-gradient-19" x1="-1051.37" y1="445.08" x2="-1019.61" y2="414.52" gradientTransform="matrix(0.88, 0.28, 0.29, -0.84, 1040.62, 697.03)" gradientUnits="userSpaceOnUse"><stop offset="0" stop-color="#e7e7e7"/><stop offset="1" stop-color="#2e2e2e"/></linearGradient><linearGradient id="linear-gradient-20" x1="-1023.04" y1="404.15" x2="-991.29" y2="373.59" gradientTransform="matrix(0.39, 0.8, 0.84, -0.37, 237.52, 1205.53)" xlink:href="#linear-gradient-19"/></defs><g id="Layer_2" data-name="Layer 2"><g id="Layer_1-2" data-name="Layer 1"><path class="cls-1" d="M11.7,232c57.09-.34,114.5-.33,171.57,0,.91-44.52-.26-89,.39-133.48H124.3c-.69,3.37.21,3-4.3,3H75.17c-4.71,0-3.78.39-4.49-3H11.32C12,143,10.81,187.48,11.7,232Z"/><path class="cls-2" d="M25,312.07c-5.52,21.2-11,42.22-16.53,63.4H22.22q8.19-30.64,16.36-61.23Z"/><path class="cls-2" d="M186.55,375.48c-5.54-21.26-11-42.29-16.53-63.41l-13.62,2.18q8.21,30.71,16.37,61.23Z"/><path class="cls-2" d="M151.3,239.88c-4.4,1.64-8.72,2.78-13,4-1.23.34-.95,1-.74,1.73q3.22,11.52,6.4,23.06c2.35,8.55,4.67,17.1,7,25.64.17.6-.08,1.56,1.35,1.55,4.42,0,8.85,0,13.44,0C160.93,277.14,156.15,258.65,151.3,239.88Z"/><path class="cls-2" d="M29.21,295.86c4.13,0,8-.1,11.83,0,2,.07,2.73-.4,3.13-2,1.61-6.41,3.41-12.79,5.18-19.17q4.07-14.7,8.18-29.39c.16-.58.34-1.11-.6-1.39-4.38-1.28-8.82-2.44-13.25-4.06Z"/><path class="cls-2" d="M20.19,309.2c1.87.06,3.53.2,5.18.16,8.8-.2,17.6.25,26.41.05,11.52-.26,23-.23,34.58-.28,1.4,0,1.69-.42,1.76-1.45.2-2.69-.08-5.37.1-8,.11-1.56-.5-2.06-2.47-2-18.67.19-37.34-.08-56-.21-3.31,0-6.62.38-10.06.19C19.91,301.6,19.6,305.36,20.19,309.2Z"/><path class="cls-2" d="M107.61,309.11c22.47-.1,44.75.77,67.2.08a92.6,92.6,0,0,0,.39-11.54c-22.54-.56-44.83.35-67.22-.07C107.81,301.47,108.27,305.17,107.61,309.11Z"/><path class="cls-2" d="M103.25,242.06a107.77,107.77,0,0,1-11.45.35v66.75c3.9-.63,7.59-.26,11.45-.14Z"/><path class="cls-2" d="M103.12,374.3v-61a7.53,7.53,0,0,0-3,0c-2.09.26-4.18.58-6.28.74-1.53.12-2.17.5-2.17,1.87.06,19,0,37.93,0,56.89,0,.5-.18,1,.28,1.53A80.2,80.2,0,0,0,103.12,374.3Z"/><path class="cls-2" d="M193.21,233.55q-95.88.47-191.49,0a8.8,8.8,0,0,0,.12,3.06H193.21Z"/><path class="cls-2" d="M104.7,81.15V49.43H90.27V81.16A138.91,138.91,0,0,0,104.7,81.15Z"/><path class="cls-2" d="M84.43,90.91h26.06V82.74H84.43Z"/><path class="cls-2" d="M124.9,93.31H70.1v3.48h54.8Z"/><path class="cls-2" d="M72.89,99.89h49.34c-.06-.53.23-1-.25-1.36-3-.2-47.85-.11-49.13.1A1.4,1.4,0,0,0,72.89,99.89Z"/><path class="cls-2" d="M9.24,225.22H1.78V232H9.24Z"/><path class="cls-2" d="M185.74,225.21V232h7.44v-6.74Z"/><path class="cls-2" d="M106.17,81h.3V49.37h-.3Z"/><path class="cls-2" d="M88.81,49.38h-.4V81h.4Z"/><path class="cls-2" d="M162.35,301.77c1.36.08,2.3.64,2.27,1.81s-.89,1.81-2.35,1.81-2.31-.65-2.33-1.8S160.91,301.89,162.35,301.77Z"/><path class="cls-2" d="M98.71,304.22c.1.82-.63,1.06-1.55,1-1.09,0-1.61-.57-1.6-1.38s.66-1.23,1.62-1.2S98.76,303.26,98.71,304.22Z"/><path d="M67.36,96.66c0-1.09,0-2.27,0-3.44.1-1.73.65-2.18,2.82-2.2,4,0,8,0,12.34,0,0-2.27,0-4.46,0-6.66.07-2.78.25-2.91,3.66-3.33a4.43,4.43,0,0,0,.09-2.11q0-14.23,0-28.46c0-2.26.24-2.44,3.12-2.44h15.85c3.26,0,3.41.13,3.41,2.68q0,14.85,0,29.7a5,5,0,0,0,0,.57c3.65.62,3.69.64,3.78,3.79,0,2,0,4,0,6.26,2,0,4,0,5.85,0,2.19,0,4.38,0,6.57,0,1.84,0,2.7.72,2.73,2.14,0,1.18,0,2.36,0,3.44a3.77,3.77,0,0,0,2.23.31c16.62,0,33.24,0,49.86,0,6.58,0,5.75.15,5.76,4.57.11,30.16.09,60.32.11,90.48q0,15,.07,30v1.65c2.28,0,4.44-.09,6.59,0,2.59.13,2.73.29,2.74,2.31,0,3.35,0,6.7-.05,10.05,0,1.8-.42,2.16-2.75,2.16-2.64,0-5.28-.19-7.92-.19-10.05,0-20.09.11-30.14.17-.31,0-.62,0-1.17.08l15.38,57.58c2.28,0,4.58,0,6.88,0,1.42,0,2,.53,2.14,1.53a9.22,9.22,0,0,1,.06,2.46c-.46,3-.06,6-.06,9,0,2.08-.05,2.12-2.68,2.23-.69,0-1.39,0-2.34,0,5.89,22.25,11.72,44.3,17.6,66.5h-6.12c-3.74,0-7.47-.11-11.21,0-1.59,0-2.22-.35-2.56-1.61-2.63-9.71-5.37-19.41-8-29.12-3.14-11.47-6.22-23-9.33-34.43a11.93,11.93,0,0,0-.42-1.15h-46c-.7.57-.49,1.11-.49,1.6q-.06,29-.08,58c0,1.7.1,3.4.25,5.1.1,1.12-.32,1.62-1.83,1.51a94,94,0,0,0-13.11,0c-1.63.1-2-.42-1.92-1.59.59-15.52.11-31,.23-46.55,0-5.47,0-10.93,0-16.4a2.32,2.32,0,0,0-.33-1.65c-4.49,0-9,0-13.61,0-10.24-.05-20.48-.09-30.72-.19-1.51,0-2.06.33-2.39,1.54q-8.4,31.11-17,62.2c-.74,2.72-.8,2.69-4.32,2.71l-13.72.11H5.05c5.87-22.21,11.7-44.24,17.53-66.27a6.61,6.61,0,0,0-2.94-.28c-1.63.07-2.05-.59-2-1.68.15-3.71.13-7.41-.06-11.12-.1-2,.39-2.32,2.88-2.36,2,0,4,0,6.2,0C31.77,276.62,36.88,257.48,42.1,238H27.82c-7.86,0-15.72-.2-23.57.19-.45,0-.9,0-1.35,0-2.45-.07-2.83-.36-2.85-2.26q0-4.78,0-9.59c0-2.48.07-2.58,3.22-2.74,1.92-.1,3.86,0,5.76,0,.62-.65.34-1.35.34-2q0-54.67,0-109.34c0-4.49-.1-9,.26-13.46.08-1.1.65-1.51,1.9-1.71a18.48,18.48,0,0,1,2.88-.16H64.84A6.36,6.36,0,0,0,67.36,96.66ZM11.71,232c57.09-.34,114.5-.33,171.57,0,.91-44.53-.26-89,.39-133.49H124.31c-.69,3.37.21,3-4.3,3q-22.41,0-44.83,0c-4.71,0-3.78.4-4.49-3H11.33C12,143,10.82,187.48,11.71,232Zm50.19,6.17c-5.07,19.32-10.07,38.39-15.07,57.49H89.31V238.17Zm43.9,0v57.51h42.39c-5-19.21-10-38.29-15.08-57.51ZM25,312.06c-5.52,21.2-11,42.23-16.53,63.4H22.23l16.36-61.22Zm161.59,63.41c-5.54-21.26-11-42.29-16.53-63.41l-13.62,2.18q8.21,30.7,16.37,61.23Zm-35.25-135.6c-4.4,1.64-8.72,2.78-13,4-1.23.35-.95,1-.74,1.73q3.22,11.52,6.4,23.06c2.35,8.55,4.67,17.1,7,25.64.17.6-.08,1.56,1.35,1.56,4.42,0,8.85,0,13.44,0C160.94,277.13,156.16,258.65,151.31,239.87Zm-122.09,56c4.13,0,8-.09,11.83,0,2,.07,2.74-.4,3.13-2,1.61-6.41,3.41-12.79,5.18-19.17q4.06-14.7,8.18-29.39c.16-.57.34-1.11-.6-1.39-4.38-1.28-8.82-2.44-13.25-4.06Zm-9,13.34c1.87.06,3.53.21,5.18.17,8.81-.21,17.6.24,26.41,0,11.52-.26,23.05-.23,34.58-.27,1.4,0,1.69-.43,1.76-1.46.2-2.68-.08-5.37.1-8,.11-1.56-.5-2.06-2.47-2-18.67.19-37.34-.08-56-.21-3.3,0-6.61.38-10.06.2C19.92,301.59,19.61,305.35,20.2,309.19Zm87.42-.08c22.47-.11,44.75.76,67.2.07a92.6,92.6,0,0,0,.39-11.54c-22.54-.56-44.83.36-67.22-.07C107.82,301.46,108.28,305.16,107.62,309.11Zm-4.36-67.06a105.18,105.18,0,0,1-11.45.35v66.75c3.9-.63,7.59-.26,11.45-.13Zm-.13,132.24v-61a7.54,7.54,0,0,0-2.95,0c-2.09.26-4.18.58-6.28.74-1.53.12-2.17.5-2.17,1.87.06,19,0,37.93,0,56.89,0,.5-.18,1,.28,1.53A78.66,78.66,0,0,0,103.13,374.29Zm90.09-140.75q-95.88.47-191.49,0a8.83,8.83,0,0,0,.12,3.06H193.22ZM104.71,81.14V49.42H90.28V81.15A136.19,136.19,0,0,0,104.71,81.14ZM84.44,90.9H110.5V82.73H84.44Zm40.47,2.4H70.11v3.48h54.8Zm-52,6.58h49.33c-.06-.53.23-1-.25-1.36-3-.2-47.85-.1-49.13.1A1.38,1.38,0,0,0,72.91,99.88ZM9.25,225.21H1.79V232H9.25Zm176.5,0v6.73h7.44v-6.73ZM106.18,81h.3V49.36h-.3ZM88.82,49.37h-.4V81h.4Z"/><path d="M32.91,306.46c-2.33,0-3.78-1.11-3.9-3.14s1.27-3.3,3.55-3.32,3.82.93,3.87,3.08S35.15,306.27,32.91,306.46Z"/><path d="M162.39,300c1.88.14,3.18,1.08,3.14,3.08a2.93,2.93,0,0,1-3.25,3.06,2.89,2.89,0,0,1-3.23-3.06C159,301.05,160.4,300.2,162.39,300Z"/><path d="M100,303.14c.19,1.69-1.14,2.19-2.79,2.17a2.62,2.62,0,0,1-2.89-2.85c0-1.63,1.18-2.53,2.92-2.46C99.15,300.09,100.08,301.17,100,303.14Z"/><path class="cls-3" d="M52.24,171.42a3.56,3.56,0,0,1-.4-1.37q-.17-1-.45-2.67c-.44-1.68-.69-2.71-.75-3.1l-.5-1.61c-.22-.86-.4-1.59-.5-2.2L49,158.12a11.79,11.79,0,0,0-.61-2.44,35.21,35.21,0,0,1-1-4.35c-.32-1.79-.49-2.89-.5-3.29l-.42-1.61c0-.16-.17-.73-.39-1.71l-.15-.57a3.93,3.93,0,0,0-.45-1.44l-.17-3.13-.17-1.75a7.73,7.73,0,0,1,.68-1.61c.09-.19.6-.4,1.51-.61a19.38,19.38,0,0,1,2.06-.39,1.15,1.15,0,0,1,1,.24,5.56,5.56,0,0,1,.79,1.37,5.67,5.67,0,0,1,.9,2.57,7.19,7.19,0,0,1,.25.7l.21.79a11.78,11.78,0,0,1,.8,3.27,13,13,0,0,0,.4,1.25l.19.72a16.91,16.91,0,0,1,.54,2.83l.53,2a6.31,6.31,0,0,1,.33,2c.05.21.2.86.44,1.93,0,.4,0,.88.09,1.43a3.59,3.59,0,0,1,.44,1.67c-.09.2.12.83.64,1.88A12.25,12.25,0,0,0,58,163.62l.43,1.6a28.16,28.16,0,0,1,1.26,5l.13.48a14.91,14.91,0,0,1,.48,2.36,22.57,22.57,0,0,1,.91,3.43l.13.48.38,2c.52,4-.31,6.62-2.53,8q-4.12,2.56-7.77-.34l-.74-1.09q-.81.1-3-3.09c-2.3-3.25-3.57-5.06-3.82-5.4a34.05,34.05,0,0,1-1.92-3.17l-.56-1.53-.46-.58a6.47,6.47,0,0,1-.63-.88,13.14,13.14,0,0,0-1.16-2.35c0-.11-.34-.76-.92-2l-2.83-7.17a7.19,7.19,0,0,0-.29-.82l.19,1.92c.64,3.83,1,6.17,1.05,7l1.87,8.58.88,3.36.87,4.18q.82,3.12,1.74,5.73a5.73,5.73,0,0,1,.06,3.53,3.62,3.62,0,0,1-2,1.68,20.39,20.39,0,0,1-3.14-.26,1.88,1.88,0,0,1-1.08-1.16,3.46,3.46,0,0,0-1.34-1.53A2.76,2.76,0,0,1,33,190.17L30.34,184c-.24-.92-.45-1.89-.64-2.92a22.51,22.51,0,0,0-.82-3.12,13,13,0,0,1-.61-3.89,14.32,14.32,0,0,0-.54-3.76,28,28,0,0,1-.86-3.89c-.26-1.6-.48-2.76-.66-3.47a4.88,4.88,0,0,1-.21-1.73,11.62,11.62,0,0,1-.41-2.17,11.42,11.42,0,0,1-.21-2.67,9.72,9.72,0,0,1-.24-1.85c-.06-.83-.19-1.94-.39-3.34a10.34,10.34,0,0,1,0-3.51,15.18,15.18,0,0,1,1.14-3.34,3.92,3.92,0,0,0,.63-2.46,4.81,4.81,0,0,1,1.53-2,2.08,2.08,0,0,1,1.26-.73,2.7,2.7,0,0,1,1.75.21,6.25,6.25,0,0,1,4.66,3.56l.83,2a9.27,9.27,0,0,0,1.24,2.06,14,14,0,0,0,.92,2.31,6.4,6.4,0,0,0,1.13,2.26q1.81,4,2.6,5.54a4.94,4.94,0,0,1,1,1.4c.23.46.61,1.15,1.15,2a21,21,0,0,0,1.47,3q5.75,10.06,6.79,11.21a8,8,0,0,0-.4-2.07Z"/><path class="cls-3" d="M67.16,145.6a.79.79,0,0,0-.06-.22,8,8,0,0,1-.25-1.06,7.71,7.71,0,0,0-.29-1.14.82.82,0,0,0-.54-.53,6.88,6.88,0,0,0-1.88-.12h-.27a19,19,0,0,1-3.32-.7,1.49,1.49,0,0,1-1-.57,1.2,1.2,0,0,1-.26-1.19,3.77,3.77,0,0,0,.12-1.44,1.54,1.54,0,0,1,.23-1.15,6.11,6.11,0,0,1,2.16-1A3.1,3.1,0,0,0,64,135.14a6.92,6.92,0,0,1,1.08-.82l.65-.83a4,4,0,0,1,1.9-1.41,6.71,6.71,0,0,0,2.14-1.33,6.5,6.5,0,0,1,1.68-1.21,7.36,7.36,0,0,0,1.47-.93,3,3,0,0,0,.46-.49,3.13,3.13,0,0,1,1-.82A5.53,5.53,0,0,1,76.2,126c.77-.57,1.18-.86,1.23-.88a1.21,1.21,0,0,0,.28-.19,6.62,6.62,0,0,1,1.49-1.13,4.91,4.91,0,0,0,1.55-1.42,19,19,0,0,1,4.92-3.32q.45-.16,1.11.45c.66.39,1.06.55,1.21.5s.51.17,1.07.67a5.91,5.91,0,0,1,1.25,1.55,2.86,2.86,0,0,0,1.17,1.19,5.37,5.37,0,0,1,.83.76c.08.12,0,.29-.15.53a1.48,1.48,0,0,1-.72.51,8.84,8.84,0,0,0-1.93,1.56,12.67,12.67,0,0,1-2.78,2.45,14.5,14.5,0,0,0-2.61,2.08l-.18.17-2.83,2.09a40.15,40.15,0,0,0-3.68,3.07,1.54,1.54,0,0,0-.17.19,13.82,13.82,0,0,1-2.18,2c-.22.19-.25.57-.1,1.14l.53,1.45,0,.11c.55,1.8.84,2.78.9,2.93s.37,1.68.94,4.59q.12.66.24,1.2A2.14,2.14,0,0,0,81,151.47l0,0c1.27-1,2.13-1.65,2.56-1.95a2.57,2.57,0,0,0,.76-.66,5.1,5.1,0,0,1,1.74-2.46,8.41,8.41,0,0,1,2.5-1.89,2.59,2.59,0,0,0,1.32-1c.3-.45.84-.6,1.64-.47s1.4.84,1.8,2.11a5,5,0,0,1-1.25,5.56c-.11.67-.93,1.54-2.45,2.64A25,25,0,0,0,86.47,156c-.63.65-1.18,1.26-1.66,1.84-1,1.14-1.62,1.89-2,2.23a3.68,3.68,0,0,0-1,.87,4.4,4.4,0,0,1-.92.55.77.77,0,0,0-.54.66,8.48,8.48,0,0,0,.49,2A60.25,60.25,0,0,1,83,170.36q.7,2.64,1.54,4.93a7.61,7.61,0,0,1,.61,3.61A2.92,2.92,0,0,1,83.23,181a1.1,1.1,0,0,1-1,.11c-.27-.25-1-.11-2.22.42a6.47,6.47,0,0,1-2.37.73,1.72,1.72,0,0,1-1.09-.88c-1.54-2.5-2.32-3.92-2.32-4.26a4.63,4.63,0,0,0-.29-1.25,7.11,7.11,0,0,1-.37-1.74,4.69,4.69,0,0,1-.34-1.16c.14-.1,0-.76-.45-2l-2-6.07a12.47,12.47,0,0,1-.79-3.84,11.86,11.86,0,0,0-.6-3.29,1.37,1.37,0,0,1-.08-.35l-.4-3a2.21,2.21,0,0,0,0-.25q-.39-1.53-.51-2.31a19.55,19.55,0,0,0-.41-2.32,6.71,6.71,0,0,0-.46-2.47Z"/><path class="cls-3" d="M109.24,126.62a71.87,71.87,0,0,1-8.76,5.27l-1.55.56a8.08,8.08,0,0,1-2.37.36c-.46-.05-.92-.47-1.37-1.25a5.37,5.37,0,0,1-.1-4,9.78,9.78,0,0,1,3.35-3.39,29.91,29.91,0,0,0,4.55-3.32L106.7,118l3-1.74a12.21,12.21,0,0,1,2.86-1.29,10.66,10.66,0,0,0,3.17-1.61,11.24,11.24,0,0,1,2.43-1.55c1-.52,2.07-1,3.1-1.59a6.54,6.54,0,0,1,3-.85c.39-.14,1.44.15,3.14.86l.74.9a1.15,1.15,0,0,0,.49.66A2.74,2.74,0,0,1,129,114a5.32,5.32,0,0,1-1.79,1.73c-.44.16-2.22,1.15-5.34,3a6.49,6.49,0,0,0-1.64,1c-.24.09-1.17.54-2.76,1.34l.22.84.16.44a15,15,0,0,0,.77,2.59,36.88,36.88,0,0,1,1.28,4.42l.24.66a3.29,3.29,0,0,0,.17,1.06,7.77,7.77,0,0,1,.27,1.2,4.23,4.23,0,0,0,.33,1.13,2.86,2.86,0,0,1,.24,1.24l.19.52a7.85,7.85,0,0,1,.3,2.89l1,3.32a25.27,25.27,0,0,1,1.2,3.78,18.65,18.65,0,0,0,1.12,3.3l1.33,3.68c.68,1.87.93,2.92.74,3.15l.84,1.87c.48,1.32.62,2,.42,2.09a2.61,2.61,0,0,1,0,2.16,3.85,3.85,0,0,1-1.58,2.07l-2,1a2.57,2.57,0,0,1-2.24.06,3.91,3.91,0,0,1-1.09-.94,62,62,0,0,1-3.67-6.66l-.35-1.88a2.16,2.16,0,0,1-.46-.83l-.19-.51a3.5,3.5,0,0,1-.3-2c-.31-.22-.44-.9-.4-2a1.65,1.65,0,0,1-.69-1.09,19.12,19.12,0,0,1-.24-1.91,1.05,1.05,0,0,1-.26-.74,1,1,0,0,1-.27-.73c-.65-2.55-1.06-4-1.24-4.43a8.87,8.87,0,0,1-.43-2.22,11,11,0,0,1-1-3.54l-.19-.52a10.25,10.25,0,0,0-.86-2.36l-.89-3.84s-.18-.63-.47-1.75Z"/><path class="cls-4" d="M67.77,215.42l-.85,2.93a32.43,32.43,0,0,1-1.83,3.32,2.76,2.76,0,0,1-2.31,1.75,9.1,9.1,0,0,1-3.49-.07,9.7,9.7,0,0,1-3.59-1.59,11.14,11.14,0,0,1-2.62-3.48,12.69,12.69,0,0,1-1.58-4.16,29.08,29.08,0,0,1-.63-3l-.15-1.75a10.79,10.79,0,0,1,0-3.07c0-.2.11-.72.23-1.57a17.6,17.6,0,0,1,1.24-6c1.49-3.7,3.17-5.68,5.06-5.95l.36,0a1,1,0,0,0,.45,0l.94-.08a16,16,0,0,1,3.17.17A7.41,7.41,0,0,0,64,193l1.93.2a6.61,6.61,0,0,1,2.33.16,3.68,3.68,0,0,1,1.58.53,10.37,10.37,0,0,1,.55,1.56c.27.91.46,1.57.57,2s.21.83.3,1.26a58.65,58.65,0,0,0,2.76,9.75,4.15,4.15,0,0,1,.2.64,12.49,12.49,0,0,0,.66,1.67c.37.82.65,1.52.84,2.09a19.17,19.17,0,0,0,1,2.26,18.15,18.15,0,0,0,1.53,2.43c1.2,1.42.75,2.63-1.37,3.65a5.36,5.36,0,0,1-1.51.28,5.23,5.23,0,0,1-1.45-.61,1.84,1.84,0,0,1-1.46-.68l-.59-.09a1.43,1.43,0,0,0-.92-.44c-.11-.09-1.15-2-3.14-5.67A5.51,5.51,0,0,0,67.77,215.42ZM64.29,201.7a4.19,4.19,0,0,0-.94-2.38,3.25,3.25,0,0,0-2.49-.77,6.48,6.48,0,0,0-1.13,2.56,15.56,15.56,0,0,0-.68,4.5,34.66,34.66,0,0,0-.11,7,10.25,10.25,0,0,0,1.62,5.15c.11.18.22.25.31.19.25,0,.59-.54,1-1.56A27.79,27.79,0,0,0,64.29,201.7Z"/><path class="cls-4" d="M82.09,199.55a8.47,8.47,0,0,0-.28-1.51l0-.51a2.85,2.85,0,0,0-.17-1.09,5.79,5.79,0,0,1,0-1.33,3.26,3.26,0,0,1,.2-1.92,4.61,4.61,0,0,1,.87-1.77c.18-.21.52-.56,1-1a16.71,16.71,0,0,1,1.57-.58c.18-.21.84-.19,2,0a15.22,15.22,0,0,1,2.31.31A3.26,3.26,0,0,1,91,191.21a13.76,13.76,0,0,0-.28,2.19,13.24,13.24,0,0,0,0,3c.27-.27.73-.82,1.39-1.66s1-1.29,1.06-1.34a16.55,16.55,0,0,1,3.61-1.57c1.73-.3,2.89-.27,3.45.07a2.15,2.15,0,0,1,1.08.56,4.39,4.39,0,0,1,1.27,1.91c.37.92.4,1.52.08,1.79a7.27,7.27,0,0,1-2.86.84,4,4,0,0,0-1,.67L95.29,201a6.76,6.76,0,0,0-1.51,1.16l-1.16,2.67a11.33,11.33,0,0,0,0,1.91,18.8,18.8,0,0,0,.22,2.51c.09.51.23,2.15.43,4.92l.27,3.14c.15,1.7.21,2.68.19,3a7,7,0,0,1-.46,1.47c-.13.26-.58.42-1.35.49-1.77,1.57-3,1.61-3.67.1l-1-.5a1.34,1.34,0,0,1-.79-.66,3.49,3.49,0,0,1-.66-.9l-.38-1-.52-.83c-.15,0-.35-1-.61-2.78s-.4-2.92-.44-3.33a6.44,6.44,0,0,0-.26-1.34,2.32,2.32,0,0,0,.32-1.79,11.65,11.65,0,0,0-.35-1.91c-.14-.46-.16-.75-.08-.88a5.42,5.42,0,0,0-.24-2,1.44,1.44,0,0,1-.17-1.08Z"/><path class="cls-4" d="M117.71,174c0,1.23,0,2.12.05,2.68a13.23,13.23,0,0,1,0,1.5L118,180l0,.52.13,1.53a11.56,11.56,0,0,1,0,1.32l2.5-.74a18.17,18.17,0,0,0,2.09-.55,14.82,14.82,0,0,1,3.28-.61,2.84,2.84,0,0,1,2.1.44,2.42,2.42,0,0,1,.69,1.63,2,2,0,0,1-.37,1.72l-.25.46a2.68,2.68,0,0,1-1.57,1.38l-2.51.59-3.21,1.09-1.91.9c.16,1.21.36,2.54.61,4s.4,2.47.45,3.05l.45,2.67q1.51,6.35,3.63,12.9a10.71,10.71,0,0,1,1.2,2.91l.72,1.48c.34,1.63-.61,2.55-2.84,2.74-.39,0-1.37,0-2.94,0a4.14,4.14,0,0,1-2-1.15c0-.1-.3-.39-.89-.88l-1.67-3.23a5.34,5.34,0,0,1-.49-1.35,7.55,7.55,0,0,1-1.63-3.53,4.65,4.65,0,0,0-.21-.71l-.09-1a5.51,5.51,0,0,1-1-2.78c-.29-1.54-.58-3-.9-4.33a33.44,33.44,0,0,0-.91-5.43l-.29-1.59,0-.65c0-.49,0-.74-.07-.73l-.87.08a5.57,5.57,0,0,1-1.83.15c-2.13.19-3.67-.28-4.6-1.43-.69-1.26-.79-2.11-.29-2.54a11.68,11.68,0,0,1,3.83-1.51,9.54,9.54,0,0,0,3.49-1.26,4.54,4.54,0,0,1,0-2.06,7.57,7.57,0,0,1,.28-2.19,2.81,2.81,0,0,0,.24-1,20.73,20.73,0,0,1,.79-5.29,9.29,9.29,0,0,1,.6-2.33c.55-1,1.84-1.38,3.86-1.21a2.85,2.85,0,0,1,1.91.79C117.66,172.16,117.72,172.75,117.71,174Z"/><path class="cls-5" d="M144.13,206.67a5.16,5.16,0,0,1,1.71-2.26,4.05,4.05,0,0,1,2.8-1.13,6.54,6.54,0,0,0,2.49-.34,5.68,5.68,0,0,1,2-.35,14,14,0,0,1,2.9.59c1.31.38,2.21.61,2.67.7s.86.18,1.18.26a1.83,1.83,0,0,1,.94.8,2.62,2.62,0,0,1,.43,1.63q-1.9,7.17-5.53,9l-3.26.42a5.08,5.08,0,0,1-3.07-1.63c-2.3-.31-3.42-.89-3.39-1.76a7.07,7.07,0,0,0-1.12-1.66,4,4,0,0,1-1.1-2.31A7.86,7.86,0,0,1,144.13,206.67Zm21.12-70.59L164,144.14q-.65,5.48-2.84,20.52t-2.4,20.48q-.21,5.45.37,7.09a3.44,3.44,0,0,1-3.09,1.93,5.15,5.15,0,0,1-1.62-.27,3.28,3.28,0,0,0-.85-.25l-.43,0-.43-.12a16.74,16.74,0,0,1-2.54-7,31,31,0,0,1-1.77-5.74,3.79,3.79,0,0,0-.43-1.69c-.1-3-.14-4.65-.14-4.87l.18-4.53a35.65,35.65,0,0,0,.64-5.59l.07-1.62a33.42,33.42,0,0,1,1.1-6.27,35.37,35.37,0,0,0,1.13-6.87,15.81,15.81,0,0,1,1.92-6.35c1.2-2.41,2-4.1,2.46-5.1s.73-1.7.89-2.12a5.82,5.82,0,0,1,.59-1.17,1.61,1.61,0,0,1,1.43-.81,7.67,7.67,0,0,1,2.29-.56Q165.36,133.4,165.25,136.08Z"/><g id="layer1"><g id="g6141"><g id="g5040"><path id="path5033" d="M135.43,138.32h0a1.43,1.43,0,0,0-1.07.44,22.72,22.72,0,0,0-3.45,4.72,1.43,1.43,0,0,0-.09,1.18,21.91,21.91,0,0,0,4.83,8.15,1.45,1.45,0,0,0,2.06,0h0s2.47-2.52,3-3.08a1.24,1.24,0,0,0,.39-.73c0-.16.07-.3.1-.45s.08-.63.12-1c.06-.76.11-1.69.14-2.6.08-1.83.1-3.6.1-3.6a1.45,1.45,0,0,0-1-1.4l-4.7-1.55a1.55,1.55,0,0,0-.43-.07Z"/><path id="path5038" class="cls-6" d="M136.69,151.78a20.77,20.77,0,0,1-4.49-7.61,22.16,22.16,0,0,1,3.21-4.39l4.7,1.54s-.1,7-.47,7.42-2.95,3-2.95,3Z"/></g><path id="path5042" d="M239.89,131.31a1.59,1.59,0,0,0-.38.07s-29.59,9.08-56.45,37.88a1.47,1.47,0,0,0-.34,1.35l8.3,33.15a1.45,1.45,0,0,0,1.74,1.06c7.25-1.65,17.38-7.69,25.92-13.31s15.38-10.85,15.38-10.85a1.53,1.53,0,0,0,.39-.45c14-25.48,6.88-47.88,6.88-47.88a1.46,1.46,0,0,0-1.44-1Z"/><path id="path5044" class="cls-7" d="M184.13,170.25c26.6-28.52,55.81-37.48,55.81-37.48s6.93,21.75-6.77,46.73c0,0-27.21,20.82-40.74,23.9Z"/><path id="path5046" class="cls-8" d="M225.16,165s-9.55,11.32-17.18,14.32-11-4.91-11-4.91-3.54,8.92-7,18.86l2.53,10.1c13.53-3.08,40.74-23.9,40.74-23.9q1.44-2.62,2.58-5.19C232,169.65,225.16,165,225.16,165Z"/><path id="path5066" d="M154.7,136.21a1.47,1.47,0,0,0-1.41.88l-13.54,31.69a1.46,1.46,0,0,0,.29,1.59,263.42,263.42,0,0,0,19.48,18,124.93,124.93,0,0,0,16.76,12c5.55,3.18,10.78,5.26,15.25,4.66a13.9,13.9,0,0,0,8.64-4.09,12.64,12.64,0,0,0,3.13-8c.34-6.09-2.38-13.24-7-19.82s-14.84-15.7-23.86-23.21-16.91-13.4-16.91-13.4a1.43,1.43,0,0,0-.81-.29Z"/><path id="path5078" class="cls-7" d="M154.63,137.67S186.09,161.19,195.1,174s10.25,27.75-3.76,29.63c-15.36,2.07-50.25-34.22-50.25-34.22Z"/><path id="path5080" class="cls-9" d="M157.43,158.32s-8.82,4.71-15.12,8.17l-1.22,2.87s34.89,36.29,50.25,34.22c4.2-.56,7-2.31,8.69-4.82-1.23-2.26-2.81-4-4.63-4.3-6.26-1.16-20.91-11-33-22.65-7.16-6.93-5-13.49-5-13.49Z"/><path id="path5082" d="M154.7,136.21a1.47,1.47,0,0,0-1.41.88l-13.54,31.69a1.46,1.46,0,0,0,.29,1.59s3,3.08,7.5,7.35a1.4,1.4,0,0,0,.89.39,16.67,16.67,0,0,0,12.94-4.4,23.33,23.33,0,0,0,6.46-12.41c1.45-7,.17-13.75-3-17.52-.07-.08-.14-.14-.21-.21-5.31-4.21-9.12-7.07-9.12-7.07A1.43,1.43,0,0,0,154.7,136.21Z"/><path id="path5084" class="cls-10" d="M154.63,137.67l-13.54,31.69s2.95,3,7.45,7.3c9.7.72,15.9-6.21,17.86-15.66,1.38-6.65,0-13.06-2.68-16.28-5.29-4.21-9.09-7.05-9.09-7.05Z"/><path id="path5086" class="cls-11" d="M157.43,158.32s-8.82,4.71-15.12,8.17l-1.22,2.87s2.95,3,7.45,7.3a15.09,15.09,0,0,0,13.24-5.52c-6.37-6.68-4.35-12.82-4.35-12.82Z"/><path id="path5089" d="M151.59,135.1c-3.29,0-6.29,2.29-8.76,5.59a32.67,32.67,0,0,0-5.48,12.68,25.32,25.32,0,0,0,.25,12.86,10.15,10.15,0,0,0,2.57,4.27,6.34,6.34,0,0,0,4.32,1.74c3.28,0,6.28-2.3,8.75-5.6A32.45,32.45,0,0,0,158.72,154a25.29,25.29,0,0,0-.25-12.85,10.15,10.15,0,0,0-2.57-4.28,6.31,6.31,0,0,0-4.31-1.73Z"/><path id="path5091" class="cls-7" d="M157.29,153.67c-1.95,9.45-7.69,17.11-12.8,17.11s-7.67-7.66-5.71-17.11h0c2-9.45,7.69-17.12,12.8-17.12h0C156.7,136.55,159.25,144.22,157.29,153.67Z"/><path id="path5093" class="cls-12" d="M157.47,152.75c-1.2,2.51-4.22,1.92-4.22,1.92s-7.47,3.9-14.87,8.53c.74,4.73,3,7.57,6.11,7.58,5.11,0,10.85-7.66,12.81-17.11C157.36,153.36,157.41,153.06,157.47,152.75Z"/><path id="path5095" d="M146.49,135.78a1.46,1.46,0,0,0-1.42,1.5v0c.22,4.89-2.44,11.13-5.22,14.47-1.76,2.11-2.69,4-2.23,5.95s2.09,3.14,4.15,4.31c2.25,1.28,5.73.78,8.68-2s5.14-7.9,4.69-16.32a1.44,1.44,0,0,0-.29-.8,34,34,0,0,0-4.43-4.34c-1.6-1.39-3-2.49-3-2.49A1.44,1.44,0,0,0,146.49,135.78Z"/><path id="path5097" class="cls-10" d="M142.5,160.76c-3.9-2.21-4.79-4.12-1.52-8.06,3-3.65,5.8-10,5.55-15.46,0,0,5.48,4.35,7.17,6.57C154.56,160.1,145.28,162.33,142.5,160.76Z"/><path id="path5099" class="cls-11" d="M153.58,149.19c-.26,1.3-.9,3-2.52,3a2.88,2.88,0,0,1-2.94-2.51s-2.94.81-6.12,1.71c-.34.48-.68.94-1,1.35-3.27,3.94-2.38,5.85,1.52,8.06,2.43,1.38,9.88-.17,11.08-11.57Z"/><path id="path5101" d="M147.25,135.75l-1.21.6L136.66,141l3.81,14.13,1.52-.62c6.27-2.57,8.07-7.25,7.9-11a15.48,15.48,0,0,0-1.95-6.66Z"/><path id="path5103" class="cls-7" d="M146.69,137.66s6.41,10.77-5.25,15.54l-3.07-11.39Z"/><path id="path5110" class="cls-13" d="M145.23,143.76s-2.73,1.63-5.44,3.31l1.65,6.13c3.68-1.51,5.56-3.61,6.41-5.78-2.45-.27-2.62-3.66-2.62-3.66Z"/><g id="g5121"><path id="path5117" d="M142.24,137.84a4.28,4.28,0,0,0-.84.09,1.46,1.46,0,0,0-1.2,1.52l.41,6.78a1.46,1.46,0,0,0,1.54,1.37,1.58,1.58,0,0,0,.42-.09,7.25,7.25,0,0,0,4-3.92,1.14,1.14,0,0,0,.11-.4,5.18,5.18,0,0,0-.46-3.33,3.87,3.87,0,0,0-2-1.7,5.32,5.32,0,0,0-1.94-.32Z"/><path id="path5119" class="cls-14" d="M145.22,143a5.92,5.92,0,0,1-3.16,3.16l-.4-6.79s4.18-.76,3.56,3.63Z"/></g><g id="g5135"><path id="path5123" d="M315.59,51.55l-.49,1.37-2.93,8.23,1.37.49a81.72,81.72,0,0,1,21.1,12.19c10.23,8.28,19.23,20,17,36.9-1.91,14.63-9.43,22.62-16.71,27.47a41.16,41.16,0,0,1-13.85,6.06l-1.44.27,1.84,10,1.44-.27a52.48,52.48,0,0,0,17.68-7.61c9-6,18.84-16.94,21.15-34.62,2.77-21.13-8.94-36.65-20.71-46.16A91.12,91.12,0,0,0,317,52Z"/><path id="path5125" class="cls-15" d="M316.47,53.41,314,60.27A83.18,83.18,0,0,1,335.56,72.7c10.44,8.44,19.83,20.73,17.54,38.22-2,15-9.83,23.48-17.35,28.49a42.76,42.76,0,0,1-14.4,6.29l1.32,7.16a50.86,50.86,0,0,0,17.13-7.39c8.77-5.85,18.26-16.37,20.52-33.6C363,91.35,351.67,76.36,340.14,67A90,90,0,0,0,316.47,53.41Z"/><path id="path5127" class="cls-11" d="M315.21,57,314,60.27A83.18,83.18,0,0,1,335.56,72.7c10.44,8.44,19.83,20.73,17.54,38.22a48.41,48.41,0,0,1-1.08,5.65,45.19,45.19,0,0,0,2.09-9c2.29-17.49-7.1-29.78-17.54-38.23A82.54,82.54,0,0,0,315.21,57ZM359,118.42a46.05,46.05,0,0,1-18.23,23.67,50.86,50.86,0,0,1-17.13,7.39l-.76-4.17c-1,.26-1.57.39-1.57.39l1.32,7.16a50.86,50.86,0,0,0,17.13-7.39,46.09,46.09,0,0,0,19.24-27Z"/><path id="path5129" d="M343.24,135.74a8.08,8.08,0,0,0-3.42-1l-.05,1.46a6.67,6.67,0,0,1,2.74.82c1.31.76,2.5,2.05,2.16,5l1.44.17c.4-3.46-1.2-5.51-2.87-6.47Z"/><path id="path5131" d="M354,82.77a4.88,4.88,0,0,0-2-.09,4.67,4.67,0,0,0-2.77,1.68,8.92,8.92,0,0,0-1.74,3.5l1.42.33a7.94,7.94,0,0,1,1.43-2.89,3.15,3.15,0,0,1,1.91-1.18,4.64,4.64,0,0,1,3.21.86l.76-1.24a7.93,7.93,0,0,0-2.26-1Z"/><path id="path5133" d="M358,112.25a5.87,5.87,0,0,0-3.16-.41,8.32,8.32,0,0,0-3.32,1.3l.85,1.19a6.87,6.87,0,0,1,2.68-1c1.51-.22,3.25,0,4.82,2.54l1.23-.78A6.88,6.88,0,0,0,358,112.25Z"/></g><path id="path5137" d="M291.27,130.5c-8.59,0-14.58.49-14.58.49a1.45,1.45,0,0,0-1.34,1.56h0l9.82,130.34a1.47,1.47,0,0,0,1.38,1.35c17.18.89,29.69-.15,37.92-1.42a66.94,66.94,0,0,0,12.3-2.8,1.45,1.45,0,0,0,.92-1.11c13.05-74.2-6.35-123.75-6.35-123.75a1.45,1.45,0,0,0-1-.88c-11.28-2.84-24.66-3.65-35.24-3.76-1.33,0-2.61,0-3.83,0Z"/><path id="path5140" class="cls-11" d="M276.8,132.44s31-2.33,53.19,3.25c0,0,19.26,49.12,6.26,123,0,0-15.46,5.9-49.62,4.12Z"/><path id="path5142" d="M285.22,123.53a1.47,1.47,0,0,0-1.09.44l-13.38,13.86a1.46,1.46,0,0,0,1.3,2.46c27-4.64,57.87-3.14,57.87-3.14a1.46,1.46,0,0,0,.86-2.68,57.76,57.76,0,0,0-11.6-5.2A114.22,114.22,0,0,0,285.22,123.53Z"/><path id="path5144" class="cls-10" d="M285.17,125c29.66.8,44.82,10.7,44.82,10.7s-31-1.52-58.19,3.16Z"/><g id="g5152"><path id="path5146" d="M325.66,337.55a1.45,1.45,0,0,0-1.44,1.47,1.15,1.15,0,0,0,0,.26s.72,3.76,1.32,7.88c.3,2.06.57,4.21.7,6a17.28,17.28,0,0,1,0,3.56c-1.72,5.57-4.86,12.15-2.88,22.87a14.87,14.87,0,0,0,7.73,10.89,21.57,21.57,0,0,0,10,2.27,29,29,0,0,0,9.19-1.09,15.16,15.16,0,0,0,8.9-7.52c2.33-4.38,2.84-11.09,2.84-17.16,0-3-.16-5.9-.38-8.17a23.08,23.08,0,0,0-.76-4.83,68.43,68.43,0,0,0-3.87-7.71c-1.63-3-3.14-5.63-3.14-5.63a1.49,1.49,0,0,0-1.14-.73l-26.93-2.36Z"/><path id="path5148" class="cls-7" d="M352.61,341.37s6.05,10.59,6.9,13.08,2.52,21.26-1.61,29-11.77,7.85-16.8,7.85-14.39-1.61-16.3-12,1.07-16.44,2.84-22.18c.93-3-2-18.15-2-18.15Z"/><path id="path5150" class="cls-16" d="M350.22,341c-2.67,5.55-4.89,11.52-4.89,11.52s4.75-.83,8.26,1.44,3.68,12.74,2.34,22.59c-.88,6.52-6.14,10-13.49,10.46-6.51.39-14.19-.61-17.33-6.34,2.45,9.13,11.19,10.61,16,10.61,5,0,12.68-.1,16.8-7.85s2.47-26.51,1.61-29-6.9-13.08-6.9-13.08Z"/></g><g id="g5162"><path id="path5154" d="M236,344h-.07l-25.11,1a1.45,1.45,0,0,0-1.22.75c-2.28,4.11-4.75,4.83-8.22,5.47s-7.87,1-12.46,4.14c-5.16,3.56-6.66,9.19-6.87,13.72a28.35,28.35,0,0,0,.82,8.2,1.44,1.44,0,0,0,.4.67c6.82,6.43,20.23,7.89,37.13.93,8.59-3.54,13.78-7.34,16.85-10.3a18.73,18.73,0,0,0,4.07-5.28,1.72,1.72,0,0,0,.11-.51,34.35,34.35,0,0,0-1.84-13.19,24.39,24.39,0,0,0-1.55-3.42c-.22-.4-.41-.72-.54-.94s-.19-.46-.1-.16A1.46,1.46,0,0,0,236,344Z"/><path id="path5157" class="cls-7" d="M236,345.49c.21.78,4.41,5.83,4,17.28,0,0-3.25,7.84-20.13,14.79-16.58,6.83-29.38,5.19-35.57-.64,0,0-3.87-13.87,5.48-20.34,8.53-5.9,16.15-1.13,21.13-10.09Z"/><path id="path5159" class="cls-17" d="M236,345.49l-5.39.21c-2.63,3.22-5.46,7.15-5.46,7.15s14.32,7.9-.09,17.24-28.82,8-35.25,6.14c-4.7-1.35-6-3.94-6.32-5.74a27.22,27.22,0,0,0,.79,6.43c6.19,5.83,19,7.47,35.57.64,16.88-6.95,20.13-14.79,20.13-14.79.43-11.45-3.77-16.5-4-17.28Z"/></g><g id="g5173"><path id="path5165" d="M201.79,211.11a1.46,1.46,0,0,0-1.47,1.3c-.84,7.61,3.74,13.4,7.75,16.87a37.24,37.24,0,0,0,8.14,5.32,1.45,1.45,0,0,0,1.92-.73l3-6.64a1.45,1.45,0,0,0-.72-1.92,27.22,27.22,0,0,1-5.67-3.74c-2.75-2.38-4.62-5.1-4.29-8a1.46,1.46,0,0,0-1.29-1.61l-7.24-.8Z"/><path id="path5167" class="cls-10" d="M201.77,212.57c-.77,7,3.43,12.3,7.26,15.61a35.34,35.34,0,0,0,7.77,5.09l3-6.64a28.54,28.54,0,0,1-6-4c-2.92-2.53-5.18-5.67-4.78-9.3Z"/><path id="path5171" class="cls-11" d="M201.77,212.57c-.77,7,3.43,12.3,7.25,15.61a35.52,35.52,0,0,0,7.78,5.09l3-6.64s-.3-.14-.77-.39l-2.13,4.69a35.69,35.69,0,0,1-7.78-5.08c-3.38-2.93-7.06-7.45-7.32-13.28Z"/></g><path id="path5175" d="M218,221.7h-.14a1.45,1.45,0,0,0-1.31,1c-20.23,60.83-13.81,125.23-13.81,125.23a1.47,1.47,0,0,0,.29.73,12.93,12.93,0,0,0,4,3c2.71,1.42,7,2.77,13.18,2.73,12.44-.08,19.46-5.81,19.46-5.81a1.39,1.39,0,0,0,.46-.7L263.14,273a1.45,1.45,0,0,0-.3-1.4L219,222.18A1.47,1.47,0,0,0,218,221.7Z"/><path id="path5178" class="cls-7" d="M217.89,223.15c-20.1,60.45-13.73,124.62-13.73,124.62s4,5.26,16,5.18,18.53-5.48,18.53-5.48l23.07-74.9Z"/><path id="path5181" class="cls-18" d="M238.23,259.34s5.7,7.52,5.47,11.85-6.61,44.9-10,61.77c-3.13,15.46-10.93,19.41-12.21,20,11.16-.44,17.22-5.45,17.22-5.45l23.07-74.9-8.45-9.52c-7.82-2-15.07-3.71-15.07-3.71Z"/><path id="path5183" d="M242.5,129.33a1.46,1.46,0,0,0-1.2.59S212,169.39,215.55,216.15a71,71,0,0,0,2.81,15.25c5.75,18.95,17.53,22.68,17.53,22.68L262,272.36a11.56,11.56,0,0,0,0,1.77,350.34,350.34,0,0,0,55.51,80.62,1.66,1.66,0,0,0,.49.34s12.32,5.3,27.48-1.25c7.15-3.09,10.36-6.64,11.65-9.61a8.89,8.89,0,0,0,.79-3.75,6.15,6.15,0,0,0-.24-1.66,1.6,1.6,0,0,0-.13-.3S293.76,233.71,303.27,132.3a1.46,1.46,0,0,0-1.42-1.6Z"/><path id="path5185" class="cls-19" d="M201.84,332.67l.22,5.08c.28,6.42.64,10.17.64,10.17l0,.41.25.32a13,13,0,0,0,4,3c2.71,1.41,7,2.76,13.18,2.72,12.44-.08,19.46-5.81,19.46-5.81l.33-.28,4.51-14.64-3.56,2.64s-7.33,5.48-20.41,5.21-16-5-15.76-4.67Z"/><path id="path5187" class="cls-7" d="M242.47,130.79S213.46,170,217,216.05,263,273,263,273a349.81,349.81,0,0,0,55.56,80.8s11.68,5.07,26.33-1.26c13.84-6,11.39-13.22,11.39-13.22s-64-105-54.47-207.12Z"/><path id="path5189" class="cls-20" d="M259.1,191.46c-20.5-1-32.56,1.77-32.56,1.77a1.46,1.46,0,0,0-1.11,1.15c-2.88,15.45-4,25.16-4,25.16s3.52,4.67,3.78,4.89a1.43,1.43,0,0,0,1.12.32s21.28-2.7,58.77.67a1.46,1.46,0,0,0,1.58-1.62c-1.34-11.25.21-27.67.21-27.67a1.48,1.48,0,0,0-.24-.95c-.22-.32-3.74-4.71-3.74-4.71s-14.54,1.54-21.78,1.1l-2-.11Z"/><path id="path5191" class="cls-21" d="M278.42,131.62c-3.51,2.71-5.66,3.74-6.23,6.35s.57,6.16.57,6.16,12.65-4.11,14.93,1.59a57.67,57.67,0,0,1,13.56-6.14c.15-2.47.34-5,.57-7.42Z"/><g id="g5199"><path id="path5193" d="M269.27,109.1l-.32,0-.3.08a2,2,0,0,0-.25.12l-.37.22c-.27.17-.6.4-1,.69-.83.58-2,1.4-3.31,2.4-2.71,2-6.27,4.66-9.81,7.33-7.09,5.35-14.13,10.72-14.13,10.72a1.44,1.44,0,0,0-.57,1.15,13.41,13.41,0,0,0,3.06,7.74c3.05,3.72,9.11,7.06,20.38,6.44,22.53-1.24,39.41-16.19,39.41-16.19a1.45,1.45,0,0,0,.13-2.06,1.35,1.35,0,0,0-.37-.3l-15.79-9-10.95-6.23-3.67-2.09-1.06-.6a4.67,4.67,0,0,0-.49-.27A4.25,4.25,0,0,0,269.27,109.1Z"/><path id="path5195" class="cls-10" d="M240.65,131.84s0,13.92,21.91,12.71,38.53-15.83,38.53-15.83-31.49-18-31.89-18.16S240.65,131.84,240.65,131.84Z"/><path id="path5197" class="cls-11" d="M282,121.9c-4.12-.05-22.09,11.14-22.22,11.6s15,1.59,13.7,5.93a7.27,7.27,0,0,1-4.1,4.3A72.16,72.16,0,0,0,297,131.87a5.88,5.88,0,0,1-.87-.57c-.14-.34-10.4-8.54-13.7-9.36A1.32,1.32,0,0,0,282,121.9Z"/></g><path id="path5201" class="cls-22" d="M290.77,167.15c3.87,41.48,8.49,72.42,21.76,105,14.13,34.65,35.69,67.83,35.44,73.74-.15,3.7-3.63,6.39-6,7.78,1-.32,1.92-.69,2.91-1.12,13.84-6,11.39-13.22,11.39-13.22s-49.7-81.5-55-170.72c-4.08-.85-10.53-1.41-10.53-1.41Z"/><path id="path5203" d="M351.39,329.21c-.79,0-.83-1.41-.83-1.41s-.61,3.13-.83,3.86a10.36,10.36,0,0,1-1.56,3c-1.81,2.51-5.51,5.79-13.19,8.41-15.24,5.22-24.68-.66-24.5-.55-.54-.33-5.08-2.45-5.08-2.45s2.56,3.86,3.22,4.64q4.26,5,8.88,10a1.66,1.66,0,0,0,.49.34s12.32,5.3,27.48-1.25c7.15-3.09,10.36-6.64,11.65-9.61a8.89,8.89,0,0,0,.79-3.75,6.15,6.15,0,0,0-.24-1.66,1.51,1.51,0,0,0-.13-.29s-1.86-3-4.86-8.56a1.48,1.48,0,0,0-1.28-.76Z"/><path id="path5205" class="cls-10" d="M351.4,330.67s-.15,8.42-15.94,13.82-25.67-.64-25.74-.68q4.26,5,8.85,9.95s11.68,5.07,26.33-1.26c13.84-6,11.39-13.22,11.39-13.22s-1.87-3.08-4.89-8.61Z"/><path id="path5207" class="cls-10" d="M241.75,337.49s-7.79,5.78-21.3,5.5-16.92-5.29-16.94-5.31c.28,6.4.65,10.09.65,10.09s4,5.26,16,5.18,18.54-5.48,18.54-5.48Z"/><path id="path5209" d="M204.74,307.34l-.89,1.16a27,27,0,0,0,6.15,3.16,50.47,50.47,0,0,0,18.12,3.1,65,65,0,0,0,17.64-2.16,26.09,26.09,0,0,0,5.72-2.22l-.76-1.24a23.86,23.86,0,0,1-5.35,2.06,63.45,63.45,0,0,1-17.25,2.1,49.08,49.08,0,0,1-17.6-3,24.58,24.58,0,0,1-5.78-3Z"/><path id="path5211" d="M333.16,292.16s-6.38,11.48-21.31,18.55a37.94,37.94,0,0,1-18.3,4,22.75,22.75,0,0,1-7.07-1.3l-.56,1.35a24.66,24.66,0,0,0,7.55,1.41,39.58,39.58,0,0,0,19-4.09c15.33-7.27,22-19.16,22-19.16Z"/><path id="path5214" d="M256.67,145c-26.55,54.39-12.16,100.71-12.16,100.71a.67.67,0,0,0,.37.42l6,3a239.05,239.05,0,0,0,10.8,24.48L263,273a241.68,241.68,0,0,1-10.84-24.6.7.7,0,0,0-.36-.41l-6-3c-.26-.76-13.92-45.89,12.16-99.33Z"/><path id="path5217" d="M301.89,130.71a.38.38,0,0,0-.15,0,1,1,0,0,0-.24,0,21.37,21.37,0,0,0-14.85,16.34c-2.92,13.25,1.82,20.91,3.45,22.84a10.82,10.82,0,0,0,1.34,1.25c.64.53,1.49,1.18,2.53,1.92a71.51,71.51,0,0,0,8.52,5.17,72.85,72.85,0,0,0,28.28,8.13,1.37,1.37,0,0,0,.74-.15l29.55-14.73a1.45,1.45,0,0,0,.7-1.84A16.16,16.16,0,0,0,361,168c-5.71-10.38-20.35-19.44-33.58-26.19a246.33,246.33,0,0,0-25.1-11.06,1.2,1.2,0,0,0-.42-.08Z"/><path id="path5219" class="cls-7" d="M330.86,184.94c-22.32-1.53-38.35-14.42-39.64-15.95s-6-8.79-3.14-21.6,13.74-15.23,13.74-15.23,47.18,17.1,57.89,36.58c.26.48.49,1,.7,1.47Z"/><g id="g5231"><path id="path5221" d="M296,213.17a3,3,0,0,0-.52,0,13.8,13.8,0,0,0-6.61,2.71,23.73,23.73,0,0,0-3.84,3.26,2.75,2.75,0,0,0,.07,3.43,3.35,3.35,0,0,0,4.08,1c1.73-.67,3-1.89,4.46-2.4a5.35,5.35,0,0,1,4.16.62,9.29,9.29,0,0,0-1.79.57c-1.9.82-4.07,2.16-4.76,4.41a9,9,0,0,0,1,6.61,15.44,15.44,0,0,0,1.93,2.93,37.26,37.26,0,0,0,.81,4.61,2.78,2.78,0,0,0,3.53,2,2.73,2.73,0,0,0,1.5-1.11,3.54,3.54,0,0,0,.47-1.65c.07-1.16-.17-2.44-.23-3.83a9.6,9.6,0,0,1,.06-2,1.48,1.48,0,0,1,.49-1,12.67,12.67,0,0,1,2.85-.93,12.4,12.4,0,0,0-.62,1.11,10,10,0,0,0-1.35,5,9.24,9.24,0,0,0,2,4.24,23.31,23.31,0,0,0,2.34,2.64,2.09,2.09,0,0,0,1.63.6,2.48,2.48,0,0,0,1.47-.68,2.71,2.71,0,0,0,.53-3.27c-.54-1-1.13-1.72-1.5-2.34a1.77,1.77,0,0,1-.38-1.44,9.57,9.57,0,0,1,1.48-2.31c.52-.64.8-.93,1-1.15a17.89,17.89,0,0,0,2.62,1,15.24,15.24,0,0,0,6.31.67,7.65,7.65,0,0,0,4.9-3.53,14,14,0,0,0,1.55-2.93.73.73,0,0,0-.21-.81L315.57,221a.51.51,0,0,0-.13-.09s-3.83-2-8.2-4c-2.19-1-4.52-2-6.59-2.67a17.35,17.35,0,0,0-4.65-1.11Z"/><path id="path5223" class="cls-7" d="M295.94,214.63a17.93,17.93,0,0,1,4.24,1c2,.69,4.3,1.65,6.46,2.62,4.3,1.92,8,3.85,8.06,3.88L324,230a9,9,0,0,1-1.15,2.16,6.35,6.35,0,0,1-3.93,2.92,14.38,14.38,0,0,1-5.67-.63,24.12,24.12,0,0,1-3-1.06.73.73,0,0,0-.83.15s-.67.71-1.39,1.59a8.42,8.42,0,0,0-1.77,2.87,3.34,3.34,0,0,0,.55,2.55c.45.74,1,1.45,1.47,2.29a1.17,1.17,0,0,1-.25,1.51,1.12,1.12,0,0,1-.59.29.57.57,0,0,1-.49-.19,21.91,21.91,0,0,1-2.19-2.48,8.29,8.29,0,0,1-1.69-3.52,10.08,10.08,0,0,1,1.21-4.24,28.07,28.07,0,0,1,1.45-2.61.73.73,0,0,0-.76-1.11c-2.66.58-4.19.92-5.21,1.83a3.17,3.17,0,0,0-.94,1.76,10,10,0,0,0-.08,2.38c.06,1.5.27,2.8.22,3.68a1.88,1.88,0,0,1-.25,1,1.16,1.16,0,0,1-.72.51,1.29,1.29,0,0,1-1.66-1c-.3-1.19-1.48-6.36-.68-9.6a5.41,5.41,0,0,1,3.07-3.17,12,12,0,0,1,2.59-.91s-4.25-.63-6.16,1.87a5.05,5.05,0,0,0-.91,1.86,13.26,13.26,0,0,0-.07,3.16,6.94,6.94,0,0,1-.7-1.06,7.71,7.71,0,0,1-.92-5.51c.48-1.56,2.22-2.75,3.95-3.5a17.33,17.33,0,0,1,3.31-1.05.73.73,0,0,0,.29-1.31c-2.94-2.06-5.23-2.2-7-1.55s-3.13,1.89-4.5,2.42-1.95.11-2.36-.48a1.59,1.59,0,0,1-.17-1.62,22.72,22.72,0,0,1,3.58-3,12.77,12.77,0,0,1,5.88-2.46Z"/><path id="path5225" class="cls-23" d="M320.47,227c-2.49.15-5.11.41-5.11.41s2.78,3.54.92,4.58-6.41-.44-6.41-.44-1.73,1.82-2.92,3.26c-1.88,2.26-1.75,3.83-2.7,4-.67.13-1-.06-1.08-.37a8.28,8.28,0,0,0,1.68,3.49,21.91,21.91,0,0,0,2.19,2.48.57.57,0,0,0,.49.19,1.12,1.12,0,0,0,.59-.29,1.17,1.17,0,0,0,.25-1.51c-.46-.84-1-1.55-1.47-2.29a3.34,3.34,0,0,1-.55-2.55,8.42,8.42,0,0,1,1.77-2.87c.72-.88,1.39-1.59,1.39-1.59a.73.73,0,0,1,.83-.15,24.12,24.12,0,0,0,3,1.06,14.38,14.38,0,0,0,5.67.63,6.35,6.35,0,0,0,3.93-2.92A9,9,0,0,0,324,230Z"/><path id="path5227" class="cls-21" d="M294.45,217.76c-2.5,0-5.33,3.54-6.83,3.94A1.21,1.21,0,0,1,286,221a1.8,1.8,0,0,0,.3.77c.41.59,1.06,1,2.36.48s2.69-1.77,4.5-2.42,4.1-.51,7,1.55a.68.68,0,0,1,.3.54c.37-2.33-3.62-4.13-6-4.13Z"/><path id="path5229" class="cls-24" d="M292.51,227.77a8.29,8.29,0,0,0,1.05,4.95,6.94,6.94,0,0,0,.7,1.06,13.26,13.26,0,0,1,.07-3.16,5.48,5.48,0,0,1,.46-1.17,2.54,2.54,0,0,1-1.52-.28,1.39,1.39,0,0,1-.76-1.4Zm13.2,1.67a33.22,33.22,0,0,0-5.43,1.37c-1.68.73-2.29,2.36-3.68,1.8a1.57,1.57,0,0,1-1-1.08c-.56,3.24.51,7.91.79,9a1.29,1.29,0,0,0,1.66,1,1.16,1.16,0,0,0,.72-.51,2,2,0,0,0,.25-1c.05-.88-.16-2.18-.22-3.68a10.55,10.55,0,0,1,.08-2.38,3.17,3.17,0,0,1,.94-1.76c1-.91,2.55-1.25,5.21-1.83h0Z"/></g><path id="path5233" class="cls-25" d="M289.26,143.58a23,23,0,0,0-1.18,3.81c-2.82,12.81,1.85,20.06,3.14,21.6s17.32,14.42,39.64,15.95l4.84-2.41a38.09,38.09,0,0,0-4.75-5.16s-21.28-6.45-33.2-15C289.13,156.21,289,146.68,289.26,143.58Z"/><path id="path5235" d="M351.54,166.74c-.85,0-1.73,0-2.63.13a33,33,0,0,0-22.81,12.41,118.54,118.54,0,0,0-17.24,30.31,1.05,1.05,0,0,0-.06.24,25.37,25.37,0,0,0,4.44,17.54c7.35,10.32,19.5,8.82,19.5,8.82a1.5,1.5,0,0,0,.95-.53,223.44,223.44,0,0,0,17.12-24.85,110.3,110.3,0,0,0,10.09-21.52c2.28-7.17,3.12-14,.87-19.61a1.54,1.54,0,0,0-.41-.57,11.51,11.51,0,0,0-5.89-2.13,25.53,25.53,0,0,0-3.93-.24Z"/><path id="path5237" class="cls-7" d="M327.24,180.19c11.44-14.35,29.45-13.14,33.17-10,8.19,20.25-27.85,64.52-27.85,64.52s-11.26,1.44-18.13-8.22a23.74,23.74,0,0,1-4.19-16.44,117.23,117.23,0,0,1,17-29.89Z"/><path id="path5239" class="cls-26" d="M349.08,183.5s3,1.75.74,5.9c-6.9,12.67-19.94,35.79-24.76,38.81-5.42,3.4-9.51-.45-10.87-2,.08.12.15.23.24.35a19.06,19.06,0,0,0,2,2.43c.24.24.48.48.72.7h0c.24.22.48.43.73.63s.49.4.74.59l.75.53c.51.33,1,.64,1.52.92a19.56,19.56,0,0,0,3,1.32,22.12,22.12,0,0,0,5.81,1.14l.95,0a14.47,14.47,0,0,0,1.87-.07s24.41-30,28.49-51.89c-3.27.32-12,.65-12,.65Z"/><path id="path5241" d="M317.5,194.19s-3.23,3.46-3.48,3.95a107.79,107.79,0,0,0-5.16,11.45,1.05,1.05,0,0,0-.06.24,25.37,25.37,0,0,0,4.44,17.54c7.35,10.32,19.5,8.82,19.5,8.82a1.5,1.5,0,0,0,.95-.53s3.37-4.15,7.81-10.45a11.8,11.8,0,0,0,1-2.46l-2.28.17s-11.94,1-18.38-6-5-18-5.05-17.87c.12-.87.74-4.82.74-4.82Z"/><path id="path5243" class="cls-10" d="M315.32,198.81a102.93,102.93,0,0,0-5.08,11.27,23.74,23.74,0,0,0,4.19,16.44c6.87,9.66,18.13,8.22,18.13,8.22s3.34-4.11,7.74-10.37c0,0-12.5,1.23-19.56-6.51S315.31,198.87,315.32,198.81Z"/><g id="g5251"><path id="path5245" d="M348.83,156a15.1,15.1,0,0,0-2,.13h0a17.49,17.49,0,0,0-4.66,1.29,5,5,0,0,0-3.05,4.06,6.91,6.91,0,0,0,1.41,4.83A38.58,38.58,0,0,1,347,180.62a5.82,5.82,0,0,0,2.79,3.93,5.94,5.94,0,0,0,4.8.23c2.72-.93,6-1.48,8-.7a1.45,1.45,0,0,0,1.89-.81l0-.09s2.47-7.12,0-13.59c-1.28-3.34-4.15-6.44-6.69-8.83a53.68,53.68,0,0,0-4.8-4,1.54,1.54,0,0,0-.5-.24,15.08,15.08,0,0,0-3.63-.45Z"/><path id="path5247" class="cls-10" d="M363.08,182.73c-2.59-1-6.14-.3-9,.68s-5.05-.27-5.7-3.12a40.16,40.16,0,0,0-6.71-14.83c-1.73-2.34-1.64-5.55,1-6.68a14.68,14.68,0,0,1,9.4-.9s8.76,6.42,11,12.23,0,12.62,0,12.62Z"/><path id="path5249" class="cls-11" d="M362.62,169.06l.07.21c1.45,3.58-9.71,1.57-9.71,1.57s1.37,9.79-1,11.12c-1.9,1.08-3.12-.56-3.52-1.22.78,2.52,3,3.56,5.58,2.67,2.85-1,6.4-1.73,9-.68,0,0,2.23-6.81,0-12.62A9.67,9.67,0,0,0,362.62,169.06Zm.46,13.67Z"/></g><path id="path5253" d="M315.79,295.5a8.52,8.52,0,0,0-4.67,1.67,48.93,48.93,0,0,1-13.7,6.58,6.92,6.92,0,0,0-4.51,3.83,6.42,6.42,0,0,0,.74,5.87l4.6,7.31a13.23,13.23,0,0,0,5.18,4.57,10.52,10.52,0,0,0,6.83,1.2,29.32,29.32,0,0,0,14.68-7.44,9.33,9.33,0,0,0,2.5-6.46,12.74,12.74,0,0,0-1.6-6.72l-4-6.9a6.58,6.58,0,0,0-6-3.51Z"/><path id="path5255" class="cls-10" d="M294.88,312.67l4.6,7.31c2,3.22,6.78,5.89,10.49,5.12a28,28,0,0,0,13.95-7.05c2.7-2.65,2.57-8.12.66-11.4l-4-6.91c-1.91-3.28-5.5-3.57-8.58-1.38a50.64,50.64,0,0,1-14.11,6.78c-3.61,1.13-5,4.32-3,7.53Z"/><g id="g5263"><path id="path5257" d="M201.93,294a1.46,1.46,0,0,0-1.44,1.36s-1,13.86-1,22.35a1.47,1.47,0,0,0,.81,1.31,55.74,55.74,0,0,0,5.28,2.18,6.12,6.12,0,0,0,8-5l1.62-10.72a7.81,7.81,0,0,0-5.49-8.48,43.34,43.34,0,0,1-7.13-2.81A1.46,1.46,0,0,0,201.93,294Z"/><path id="path5259" class="cls-10" d="M201,317.66a50.9,50.9,0,0,0,5.12,2.11,4.56,4.56,0,0,0,6.09-3.85l1.63-10.72a6.42,6.42,0,0,0-4.49-6.87,43.85,43.85,0,0,1-7.39-2.92s-1,13.87-1,22.25Z"/><path id="path5261" class="cls-11" d="M201.25,307.82c-.16,3.4-.27,6.95-.27,9.84a50.9,50.9,0,0,0,5.12,2.11,4.53,4.53,0,0,0,2.19.24c2.55-1.68,2.55-10,2.55-10C203.91,310.3,201.82,308.55,201.25,307.82Z"/></g><path id="path5265" d="M304.91,199.89a18.23,18.23,0,0,1-5.64,2.41,86.92,86.92,0,0,1-11.82,2.25A256.74,256.74,0,0,1,255,206.39a200.93,200.93,0,0,1-31.5-2.22c-2.45-.42-4.67-.9-6.62-1.44l-.06,1.5c1.93.52,4.08,1,6.43,1.38A202.29,202.29,0,0,0,255,207.85,256.32,256.32,0,0,0,287.64,206a88.76,88.76,0,0,0,12-2.29,21.06,21.06,0,0,0,5.51-2.21l-.27-1.6Z"/><path id="path5267" d="M255.41,186.76c-20.5-1-32.56,1.77-32.56,1.77a1.45,1.45,0,0,0-1.1,1.15,96.65,96.65,0,0,0-.75,29.15,1.45,1.45,0,0,0,1.62,1.22s21.28-2.7,58.78.67A1.46,1.46,0,0,0,283,219.4a1,1,0,0,0,0-.3c-1.33-11.25.21-27.67.21-27.67a1.44,1.44,0,0,0-1.19-1.57,206.46,206.46,0,0,0-24.57-3l-2-.11Z"/><path id="path5269" class="cls-11" d="M281.53,219.27c-37.61-3.38-59.09-.66-59.09-.66a95.17,95.17,0,0,1,.74-28.66s22.4-5.19,58.55,1.34c0,0-1.57,16.44-.2,28Z"/><path id="path5271" d="M229.56,196.5h-.1a63,63,0,0,0-12.77,1.76,30.67,30.67,0,0,0-9.88,4.12,14.19,14.19,0,0,0-6.48,10c-.09.8,1.44.16,1.44.16s4-2.78,7.24.8c0,0,1.36,1,1.45.16.11-1,.49-1.63,2.08-2.71a22.67,22.67,0,0,1,6.64-2.67,54.84,54.84,0,0,1,10.5-1.45,1.46,1.46,0,0,0,1.42-1.49l-.15-7.29a1.47,1.47,0,0,0-1.39-1.42Z"/><path id="path5273" class="cls-10" d="M209,213.37c.16-1.47,1-2.56,2.71-3.75a23.34,23.34,0,0,1,7.1-2.88,56.25,56.25,0,0,1,10.82-1.5l-.15-7.29A62.11,62.11,0,0,0,217,199.67a29.33,29.33,0,0,0-9.41,3.92,12.74,12.74,0,0,0-5.86,9c2.8,2.89,7.24.8,7.24.8Z"/><path id="path5275" class="cls-11" d="M229.59,202.91a55.92,55.92,0,0,0-10.66,1.49,23.85,23.85,0,0,0-7.1,2.88c-1.76,1.2-2.55,2.29-2.71,3.75a7.51,7.51,0,0,0,0,1.71,5.5,5.5,0,0,1,2.59-3.12,23.27,23.27,0,0,1,7.09-2.88,56.34,56.34,0,0,1,10.82-1.5Zm-27.79,9.47a1.48,1.48,0,0,1,0,.19l0,0c0-.07,0-.15,0-.22Z"/><path id="path5277" d="M254.75,186.73c-20.09-.92-31.9,1.8-31.9,1.8a1.45,1.45,0,0,0-1.1,1.15,96.65,96.65,0,0,0-.75,29.15,1.45,1.45,0,0,0,1.62,1.22s17.48-2.19,48.62-.11h0c1.35.07,2.7.15,4.08.28a1.46,1.46,0,0,0,1.58-1.32,1.08,1.08,0,0,0,0-.31c-1.33-11.22.48-28.09.48-28.11a1.44,1.44,0,0,0-1.23-1.59,202.64,202.64,0,0,0-21.41-2.16Z"/><path id="path5279" class="cls-10" d="M254.69,188.18c-19.94-.91-31.51,1.77-31.51,1.77a95.17,95.17,0,0,0-.74,28.66s17.65-2.21,48.89-.13c1.36.07,2.74.16,4.14.28-1.37-11.53.47-28.42.47-28.43a200.26,200.26,0,0,0-21.25-2.15Z"/><path id="path5281" d="M261.74,188.58a139.52,139.52,0,0,0-1,29.41l1.46-.11a138,138,0,0,1,1-29.06Z"/><path id="path5283" d="M242,187.69a73.68,73.68,0,0,0-.43,9.27L231,206.19v.35s-.11,6.56.29,12l1.46-.12c-.39-5.22-.29-11.22-.29-11.57L243,197.66v-.36a63.43,63.43,0,0,1,.44-9.41Z"/><path id="path5285" d="M269,190.39a4.22,4.22,0,0,0-3.37,1.56,5.86,5.86,0,0,0-1.37,3.6,5.94,5.94,0,0,0,1,3.72,4,4,0,0,0,6.6.31,6.2,6.2,0,0,0,.34-7.33A4.21,4.21,0,0,0,269,190.39Z"/><path id="path5287" class="cls-10" d="M271.77,195.91c-.1,2.16-1.54,3.85-3.22,3.77s-3-1.9-2.86-4.06h0c.1-2.16,1.55-3.85,3.23-3.78h0c1.68.08,2.95,1.9,2.85,4.07Z"/><path id="path5289" d="M204.5,204.48a7.81,7.81,0,0,0,.56,3.7,5.2,5.2,0,0,0,2.21,2.45,7.6,7.6,0,0,0,4.52.7l-.15-1.45a6,6,0,0,1-3.66-.53,3.55,3.55,0,0,1-1.58-1.76,6.38,6.38,0,0,1-.45-2.93Z"/><path id="path5291" class="cls-11" d="M329.75,223.24a21.8,21.8,0,0,1-4.69,5c-5.42,3.4-9.52-.46-10.87-2,.08.12.15.23.24.35,6.87,9.66,18.13,8.22,18.13,8.22s3.33-4.11,7.74-10.37a30.74,30.74,0,0,1-10.55-1.13Z"/><path id="path5293" class="cls-11" d="M351.4,330.67s-.08,4.19-5.67,8.55c1.46,3.15,2.29,5.44,2.24,6.62-.15,3.7-3.63,6.38-6,7.78,1-.32,1.92-.69,2.91-1.12,13.84-6,11.39-13.22,11.39-13.22s-1.87-3.08-4.89-8.61Z"/><path id="path5295" class="cls-11" d="M241.75,337.49A31.21,31.21,0,0,1,230.88,342c-3.61,8.11-8.43,10.54-9.42,11h0c11.15-.45,17.2-5.45,17.2-5.45Z"/><path id="path5297" d="M257.87,134.8a7.63,7.63,0,0,0-2.39,7,13.47,13.47,0,0,0,1.13,3.89l1.3-.65a12.26,12.26,0,0,1-1-3.42,6.09,6.09,0,0,1,1.9-5.73Z"/><path id="path5299" class="cls-11" d="M321.2,305.65s-2.34,5.48-10.56,9.27c-7.21,3.32-12.24,1.93-13.38,1.54l2.22,3.52c2,3.21,6.78,5.89,10.49,5.12A27.9,27.9,0,0,0,323.92,318a6.33,6.33,0,0,0,1.53-2.5c-.09-4.05-4.25-9.89-4.25-9.89Z"/><path id="path5301" class="cls-21" d="M301.82,132.16a19.33,19.33,0,0,0-13.12,13c4-2.37,19.22-10.58,31-5.42-10-4.69-17.86-7.53-17.86-7.53Z"/><g id="g5397"><path id="path5393" d="M144.68,121.34a11.14,11.14,0,0,0-1.72.1,6.17,6.17,0,0,0-.86.18,2.36,2.36,0,0,0-.43.16,1.47,1.47,0,0,0-.36.25,1.37,1.37,0,0,0-.51,1.11,2,2,0,0,0,0,.32c0,.09,0,.22.05.37,0,.3.08.71.15,1.2.12,1,.28,2.23.44,3.48.33,2.5.65,5,.65,5l.12.89,5.31,1.81.54-1.21a34.1,34.1,0,0,0,1.34-3.6c.62-2,1.24-4.42.73-6.6a4.17,4.17,0,0,0-2-2.64,6.92,6.92,0,0,0-2.77-.77l-.66,0Z"/><path id="path5395" class="cls-21" d="M146.76,134.39s2.72-6.07,2-9.27-6.47-2.25-6.47-2,1.29,10.15,1.29,10.15Z"/></g><g id="BRUSH"><path class="cls-27" d="M152,100.38c-1.43,0-1.93-1.51-2.62-3.61-.19-.58-.41-1.24-.67-2-1.63-4.49-1.57-8.94.17-12.21a.8.8,0,0,1,.63-.43h.1a.84.84,0,0,1,.62.28A18.65,18.65,0,0,1,151.35,84c1,1.39,1.62,2.24,2.62,2.24a3.84,3.84,0,0,0,1.9-.7,2.15,2.15,0,0,1,1.15-.38c1.62,0,2,2,2.16,3.25a3.26,3.26,0,0,0,.12.6,2.69,2.69,0,0,0,1,1.22.82.82,0,0,1,.27,1,17.4,17.4,0,0,1-2.36,3.64c-3.69,4.32-5,5.5-6.28,5.5Z"/><path d="M149.59,83c1.4,1.6,2.31,4,4.38,4a4.54,4.54,0,0,0,2.34-.83A1.38,1.38,0,0,1,157,86c1.25,0,1.28,2.82,1.52,3.35a3.64,3.64,0,0,0,1.34,1.57,16.35,16.35,0,0,1-2.25,3.46c-3.15,3.7-4.7,5.22-5.65,5.22s-1.41-2-2.51-5c-1.44-4-1.64-8.24.12-11.54m0-1.65h-.19a1.64,1.64,0,0,0-1.27.87c-1.85,3.47-1.93,8.17-.21,12.88.25.69.46,1.34.65,1.92.74,2.24,1.38,4.18,3.41,4.18,1.67,0,3.26-1.52,6.91-5.8a17.76,17.76,0,0,0,2.47-3.8,1.67,1.67,0,0,0-.53-2.09,1.93,1.93,0,0,1-.75-.82,4.12,4.12,0,0,1-.08-.45c-.22-1.28-.66-3.94-3-3.94a3,3,0,0,0-1.59.5,3,3,0,0,1-1.46.57c-.59,0-1.13-.71-1.95-1.88a15.66,15.66,0,0,0-1.19-1.59,1.66,1.66,0,0,0-1.24-.56Z"/><path class="cls-3" d="M159.88,91.7a.83.83,0,0,1-.48-.15,4.35,4.35,0,0,1-1.61-1.9,4,4,0,0,1-.24-1c-.07-.42-.28-1.67-.56-1.88a2.49,2.49,0,0,0-.24.13,5.28,5.28,0,0,1-2.78,1c-1.93,0-3-1.57-4-3a15.54,15.54,0,0,0-1-1.36.83.83,0,0,1-.11-.94,10,10,0,0,1,2.94-3.41c5.53-4,5.79-9.2,5.8-9.42a.85.85,0,0,1,.64-.78l.19,0a.81.81,0,0,1,.72.43c.27.48,6.34,11.9,1.47,21.83a.82.82,0,0,1-.54.44A.65.65,0,0,1,159.88,91.7Z"/><path d="M158.43,69.81s6.19,11.41,1.45,21.07a3.64,3.64,0,0,1-1.34-1.57c-.24-.53-.27-3.35-1.52-3.35a1.38,1.38,0,0,0-.71.25A4.54,4.54,0,0,1,154,87c-2.07,0-3-2.44-4.38-4a9.19,9.19,0,0,1,2.69-3.13c6-4.35,6.15-10.06,6.15-10.06m0-1.66a1.58,1.58,0,0,0-.38,0,1.63,1.63,0,0,0-1.27,1.54c0,.23-.31,5-5.47,8.8a10.72,10.72,0,0,0-3.18,3.69,1.62,1.62,0,0,0,.22,1.86c.32.37.63.82,1,1.29,1,1.48,2.3,3.31,4.66,3.31a5.53,5.53,0,0,0,2.61-.73c.07.31.12.64.16.83A4.69,4.69,0,0,0,157,90a5.21,5.21,0,0,0,1.9,2.24,1.62,1.62,0,0,0,.95.3,1.92,1.92,0,0,0,.41,0,1.64,1.64,0,0,0,1.07-.87c5.06-10.31-1.21-22.09-1.48-22.59a1.66,1.66,0,0,0-1.45-.87Z"/><path class="cls-28" d="M132.08,173.69a.82.82,0,0,1-.76-.5,5.94,5.94,0,0,1-.28-2.9,254.75,254.75,0,0,1,5.12-30.44c2.8-10.9,10.91-35,11-35.2a.82.82,0,0,1,1-.53l2.23.6a.82.82,0,0,1,.58,1l-18.08,67.35a.82.82,0,0,1-.74.61Z"/><path d="M147.93,104.92l2.23.6-18.08,67.35a5.19,5.19,0,0,1-.22-2.5,253.67,253.67,0,0,1,5.1-30.31c2.82-11,11-35.14,11-35.14m0-1.66a1.65,1.65,0,0,0-1.56,1.13c-.08.24-8.21,24.33-11,35.26a255.41,255.41,0,0,0-5.14,30.56,6.72,6.72,0,0,0,.34,3.31,1.65,1.65,0,0,0,1.52,1h.12a1.66,1.66,0,0,0,1.48-1.22l18.08-67.36a1.7,1.7,0,0,0-.16-1.25,1.64,1.64,0,0,0-1-.77l-2.23-.6a1.54,1.54,0,0,0-.43-.06Z"/><path class="cls-27" d="M132.08,173.69a.78.78,0,0,1-.46-.14.82.82,0,0,1-.34-.9l18.08-67.35a.85.85,0,0,1,.39-.5.87.87,0,0,1,.41-.11.83.83,0,0,1,.22,0l2.23.6a.82.82,0,0,1,.59,1c0,.25-5.08,25.13-8.12,36a255.23,255.23,0,0,1-10.81,28.91,5.89,5.89,0,0,1-1.7,2.37A.8.8,0,0,1,132.08,173.69Z"/><path d="M150.16,105.52l2.23.59s-5,25-8.1,35.91a256.25,256.25,0,0,1-10.77,28.8,5.22,5.22,0,0,1-1.44,2.05l18.08-67.35m0-1.66a1.64,1.64,0,0,0-1.59,1.23l-18.09,67.35a1.65,1.65,0,0,0,.67,1.79,1.6,1.6,0,0,0,.93.29,1.64,1.64,0,0,0,1-.33,6.67,6.67,0,0,0,2-2.69,255.86,255.86,0,0,0,10.86-29c3.05-10.86,8.08-35.78,8.13-36a1.65,1.65,0,0,0-1.19-1.92l-2.23-.6a1.59,1.59,0,0,0-.43-.06Z"/><path class="cls-29" d="M148.86,111.2a.76.76,0,0,1-.21,0l-2.52-.68a.84.84,0,0,1-.52-.4.87.87,0,0,1-.06-.65l4.21-13a.85.85,0,0,1,.79-.57.76.76,0,0,1,.21,0l1.84.49a.83.83,0,0,1,.58,1l-3.52,13.12a.83.83,0,0,1-.8.62Z"/><path d="M150.55,96.75l1.83.49-3.52,13.13-2.52-.68,4.21-12.94m0-1.65A1.64,1.64,0,0,0,149,96.24l-4.21,12.94a1.66,1.66,0,0,0,1.14,2.11l2.52.68a2.1,2.1,0,0,0,.43,0,1.64,1.64,0,0,0,.83-.22,1.68,1.68,0,0,0,.77-1L154,97.67a1.66,1.66,0,0,0-1.17-2L151,95.15a1.58,1.58,0,0,0-.43-.05Z"/><path class="cls-30" d="M151.38,111.87l-.22,0-2.51-.67a.84.84,0,0,1-.51-.39.79.79,0,0,1-.08-.62L151.59,97a.86.86,0,0,1,1-.59l1.83.5a.82.82,0,0,1,.6,1l-2.84,13.31a.86.86,0,0,1-.38.53A.82.82,0,0,1,151.38,111.87Z"/><path d="M152.38,97.24l1.84.49-2.84,13.32-2.52-.68,3.52-13.13m0-1.65a1.6,1.6,0,0,0-.82.22,1.64,1.64,0,0,0-.77,1l-3.53,13.13a1.66,1.66,0,0,0,1.17,2l2.52.67a1.59,1.59,0,0,0,.43.06,1.64,1.64,0,0,0,.86-.24,1.7,1.7,0,0,0,.76-1.07l2.84-13.31a1.66,1.66,0,0,0-1.19-1.94l-1.84-.5a2,2,0,0,0-.43,0Z"/><path class="cls-28" d="M150.16,105.52l-2.23-.6s-8.15,24.14-11,35.14a253.67,253.67,0,0,0-5.1,30.31,5.19,5.19,0,0,0,.22,2.5Z"/><path class="cls-27" d="M150.16,105.52l2.23.59s-5,25-8.1,35.91a256.25,256.25,0,0,1-10.77,28.8,5.22,5.22,0,0,1-1.44,2.05Z"/><polygon class="cls-29" points="148.86 110.37 146.34 109.69 150.55 96.75 152.38 97.24 148.86 110.37"/><polygon class="cls-30" points="148.86 110.37 151.38 111.05 154.22 97.73 152.38 97.24 148.86 110.37"/></g><path id="path5405" d="M142.66,118.6a3.69,3.69,0,0,0-1.22.14,11.06,11.06,0,0,0-2.66,1.44,34.21,34.21,0,0,0-3.67,2.85c-2.55,2.24-5,5-5.71,7.9-.82,3.51-.22,9.11,1.66,14.35.14.4.91-1.85.91-1.85l2.89-.61a2.65,2.65,0,0,0,2.7,1.18c.37,0,.77-.09,1.2-.12a26.78,26.78,0,0,1,3.35-.1,2.76,2.76,0,0,0,2.9-1.35l.92.67-.13,1.08s.84-.58.91-1.12a8.66,8.66,0,0,0,1.91-5.38,10.33,10.33,0,0,0-.06-1.14,7.22,7.22,0,0,0,.6-3,7.72,7.72,0,0,0-.48-3.1,4.68,4.68,0,0,0-1.51-2,6,6,0,0,0-3.35-1c-.53,0-1.15,0-1.79,0l.11-.11a7.09,7.09,0,0,1,2.49-1.56,8.81,8.81,0,0,1,3,.36,13.85,13.85,0,0,0,3.75.56,3.23,3.23,0,0,0,2.78-2.19,3,3,0,0,0,.14-1.71,2.15,2.15,0,0,0-1.05-1.43,31.32,31.32,0,0,0-5.62-1.9,33,33,0,0,0-3.5-.75,11.82,11.82,0,0,0-1.47-.15Z"/><path id="path5407" class="cls-7" d="M142.61,120.08a9.74,9.74,0,0,1,1.31.11,33.54,33.54,0,0,1,3.35.72,36.15,36.15,0,0,1,5.29,1.77.61.61,0,0,1,.32.47,1.69,1.69,0,0,1-.09.89,1.73,1.73,0,0,1-1.49,1.23,13.38,13.38,0,0,1-3.33-.52,9.07,9.07,0,0,0-3.61-.38,7.31,7.31,0,0,0-3.19,1.92,15.23,15.23,0,0,0-1.34,1.32c-3.41.27-4.47,1.93-4.47,1.93a74,74,0,0,1,8.4-.62,4.4,4.4,0,0,1,2.55.71,3,3,0,0,1,1,1.41,6.69,6.69,0,0,1,.38,2.51c0,.15,0,.3,0,.45l0,0a4.35,4.35,0,0,0-3.22-1.42h0a30.45,30.45,0,0,0-3.83,0,6.15,6.15,0,0,0-4.42,1.79,67.83,67.83,0,0,1,8.12-.34,2.94,2.94,0,0,1,2.22.88,4.67,4.67,0,0,1,.64,2.81,6.88,6.88,0,0,1-.6,2.82,4.1,4.1,0,0,0-.14-.5,3.21,3.21,0,0,0-1.86-2.31,6.47,6.47,0,0,0-2-.22c-.54,0-1.13,0-1.72,0-2.94.12-4,1.75-4,1.75s1.53-.16,3.22-.25c.84,0,1.73-.08,2.47-.07a7.65,7.65,0,0,1,1.53.14,2,2,0,0,1,.95,1.36,6.87,6.87,0,0,1,.26,2.27h0a.8.8,0,0,1-.08.28l-.09-.11a.72.72,0,0,0-.36-.23,18.63,18.63,0,0,0-6.13-.22c-2,.17-3.58.46-3.58.46a.49.49,0,0,0-.17.06l-2.69,1.22c-1.56-4.79-2-10-1.38-12.9.53-2.26,2.82-5,5.26-7.15a32.4,32.4,0,0,1,3.51-2.72,12.87,12.87,0,0,1,2.28-1.27,3.14,3.14,0,0,1,.75,0Z"/><path id="path5409" d="M208.57,186.3a1.48,1.48,0,0,0-.55.13l-14.08,6.34a1.47,1.47,0,0,0-.84,1.57c.54,3.28.29,5.4-.23,6.7a3.54,3.54,0,0,1-2.08,2.18,7.32,7.32,0,0,1-3.94.08,1.46,1.46,0,0,0-1.82,1,1.44,1.44,0,0,0,.51,1.59s.36.16.45.22h0a4,4,0,0,0,1.11.55,12,12,0,0,0,4.24.56c3.72-.12,9.2-1.62,16.71-6.77a1.2,1.2,0,0,0,.29-.26,11.16,11.16,0,0,0,1.79-3.53,15.59,15.59,0,0,0-.16-9.31,1.45,1.45,0,0,0-1.43-1Z"/><path id="path5411" class="cls-10" d="M186.42,204.7s10.38,3.2,8.12-10.6l14.07-6.34c2.22,7.23-1.35,11.47-1.35,11.47C192.57,209.3,186.42,204.7,186.42,204.7Z"/><path id="path5413" class="cls-11" d="M209,189.44l-12.45,5.61c1.13,6.95-.93,9.59-3.27,10.5,3.32-.53,7.91-2.19,13.94-6.32C207.26,199.23,210.28,195.64,209,189.44Z"/><path id="path5415" class="cls-31" d="M144.88,122.86a4.77,4.77,0,0,0-2.86.7,72.54,72.54,0,0,0-6.05,5.38,6.81,6.81,0,0,1,3.86-1.33,15.23,15.23,0,0,1,1.34-1.32,7.31,7.31,0,0,1,3.19-1.92,9.07,9.07,0,0,1,3.61.38,13.38,13.38,0,0,0,3.33.52,1.73,1.73,0,0,0,1.49-1.23,2,2,0,0,0,.11-.45c-.54,1.09-3.27.27-5.61-.32a12.9,12.9,0,0,0-2.41-.41Z"/><path id="path5417" class="cls-32" d="M145.28,129.14a2.63,2.63,0,0,1,.55,3.66,3.59,3.59,0,0,1,1.83,1.17s0,0,0,0c0-.15,0-.3,0-.45a6.69,6.69,0,0,0-.38-2.51,3,3,0,0,0-1-1.41,3.3,3.3,0,0,0-1-.49Zm.81,5.35a3,3,0,0,1-1.06,3.44,3.55,3.55,0,0,1,1.4,2.08c0,.16.1.33.14.5a6.88,6.88,0,0,0,.6-2.82,4.75,4.75,0,0,0-.64-2.81,1.84,1.84,0,0,0-.44-.39Zm-15.2,4.12a34.66,34.66,0,0,0,1.31,5.56l2.68-1.22.18-.06s1.59-.28,3.58-.46a18.63,18.63,0,0,1,6.13.22.72.72,0,0,1,.36.23l.09.11a.8.8,0,0,0,.08-.28h0a6.87,6.87,0,0,0-.26-2.27,2,2,0,0,0-.95-1.36h0a1.67,1.67,0,0,1-.72,2.1,31.38,31.38,0,0,1-5.92.56c-3.11.06-5.82-.42-6.56-3.13Z"/><g id="g5835"><g id="g5791"><path id="path5785" d="M217.46,35.76l-1.8.22s-2.88.34-6.17,1-6.91,1.5-9.07,3.25c-1.85,1.51-3.33,3.77-4.48,7.44s-2,8.82-2.83,16.46-1,12.87-.6,16.7,1.36,6.35,2.87,8.2c1.75,2.16,5.13,3.71,8.22,5s5.82,2.26,5.82,2.26l1.73.58Z"/><path id="path5787" class="cls-10" d="M209.88,95s-10.76-3.61-13.37-6.82-3.53-8.64-2-23.83,3.58-20.32,6.79-22.93,14.49-3.95,14.49-3.95Z"/><path id="path5789" class="cls-11" d="M209.91,70.37a11.59,11.59,0,0,0-4-.45c-8.73.57-11-2.27-11.55-3.56-1.27,13.61-.33,18.7,2.16,21.77S209.88,95,209.88,95l2.44-23.56a12.45,12.45,0,0,0-2.41-1Z"/></g><path id="path5793" d="M294.06,3.59A68.15,68.15,0,0,0,279.22.37C242.5-3.43,209.64,22.59,206,58.5c0,.26-.06.56-.08.68s0,.49-.11,1.27-.16,1.9-.26,3.28c-.18,2.78-.39,6.62-.46,11-.14,8.72.24,19.49,2.42,28,1.14,4.45,2.46,9.7,6.58,14.71s10.95,9.7,22.82,13.44a142.69,142.69,0,0,0,57.1,5.9c12.39-1.22,20-4.42,25.09-8.48s7.42-8.92,9.44-13.05c3.88-7.9,6.46-18.4,8.11-27S338.94,73.2,339,73c0,0,.05-.44.08-.68,3.19-30.86-16.17-59-45-68.68Z"/><path id="path5795" class="cls-7" d="M279.07,1.82C243.12-1.9,211,23.54,207.41,58.65c0,.23,0,.52-.06.69s-2.69,26.47,1.54,43c2.28,8.9,5,19.76,28.43,27.11a141.26,141.26,0,0,0,56.52,5.85c24.4-2.41,29.32-12.48,33.37-20.73,7.54-15.34,10.3-41.69,10.32-41.8s.05-.46.07-.69C341.24,37,315,5.54,279.07,1.82Z"/><path id="path5797" class="cls-21" d="M298.35,6.77c10.34,6.22,49.49,35,17.13,97.78-16.41,31.87-61.34,29.74-95.57,16.51,4,3.07,9.51,6,17.4,8.43a141.27,141.27,0,0,0,56.52,5.84c24.4-2.41,29.32-12.47,33.37-20.72,7.54-15.34,10.31-41.69,10.32-41.81s.05-.46.07-.69c3-28.44-13.7-54.5-39.24-65.34Z"/><path id="path5799" d="M287.06,24.44c-1.08-.36-2.17-.7-3.27-1A94.37,94.37,0,0,0,266,20.34c-15.51-1.29-28.78-.31-38.7,5.43S211.06,42,209.62,58.9c-.7,8.28-1.06,17-1,24.45a1.48,1.48,0,0,0,.75,1.25s3.69,2.06,7.51,4.75a47.81,47.81,0,0,1,5.33,4.26,9.8,9.8,0,0,1,2.63,3.56,54.64,54.64,0,0,1,.58,10.57c-.07,3.82-.29,7-.29,7a1.47,1.47,0,0,0,.73,1.36s19.29,11.12,47.27,7.91a1.46,1.46,0,0,0,1.29-1.39s.17-4.08.71-8.77,1.64-10.11,2.83-12c.32-.52,2.53-2,5.53-3.31A108.58,108.58,0,0,1,294,94.9c7.41-2.19,14.46-3.76,14.46-3.76A1.44,1.44,0,0,0,309.61,90c1.62-7.24,3.06-15.88,4.06-24.12,1.54-12.68-1.47-22.18-7.16-29-5-6-11.91-9.9-19.45-12.46Z"/><path id="path5801" class="cls-33" d="M226.3,96.83c1.21,5.13.33,18,.33,18s18.84,10.88,46.37,7.72c0,0,.68-16.52,3.76-21.52s31.43-11.33,31.43-11.33c1.6-7.19,3-15.79,4-24,4-33-23.29-42-46.38-43.94C235.09,19.23,213.91,25.9,211.08,59c-.7,8.23-1.06,16.93-1,24.3,0,0,15,8.37,16.18,13.5Z"/><g id="g5813"><path id="path5803" d="M270.85,23.48c-.74-.08-1.47-.14-2.2-.2-15.44-1.3-28.64-.45-38.5,4.93s-16,15.35-17.39,31.31c-.65,7.82-1,16.1-.83,23.13l0,.82.75.4s3.68,2,7.5,4.54a46.9,46.9,0,0,1,5.32,4.06,9.5,9.5,0,0,1,2.62,3.35,49.2,49.2,0,0,1,.63,10c0,3.62-.24,6.63-.24,6.63l-.06.89.81.45s17.84,9.84,44,8l1.29-.09.08-1.22c.15-2.29.45-6.12,1-9.82s1.48-7.35,2.42-8.88c.34-.56,2.53-2,5.53-3.31a108.34,108.34,0,0,1,10.5-3.61c7.42-2.18,14.46-3.76,14.46-3.76l.92-.2.19-.87c1.62-7.24,3.05-15.88,4.05-24.12,1.66-13.65-2-23.58-8.53-30.51l-.06-.07-.08-.06C295.86,27.83,282.88,24.71,270.85,23.48Z"/><path id="path5805" class="cls-34" d="M270.7,24.89l-2.16-.2c-30.61-2.58-51.65,3.61-54.29,35-.65,7.79-1,16-.82,23,0,0,14.93,8,16.16,12.87s.43,17,.43,17,17.41,9.62,43.11,7.81c.3-4.61,1.23-15.42,3.63-19.32,3.08-5,31.43-11.33,31.43-11.33,1.6-7.19,3-15.79,4-24,1.62-13.34-1.88-22.77-8.15-29.38-8.79-7.13-21.49-10.24-33.37-11.46Z"/><path id="path5807" d="M213.53,71.77c-.13,3.79-.17,7.48-.1,10.87,0,0,14.93,8,16.16,12.87s.43,17,.43,17,17.41,9.62,43.11,7.81c.3-4.61,1.23-15.42,3.63-19.32,3.08-5,31.43-11.33,31.43-11.33.52-2.33,1-4.81,1.49-7.37C297.45,89.22,279.39,95,254.34,92,227,88.76,216.88,79.79,213.53,71.77Z"/><path id="path5809" class="cls-35" d="M288.12,31.68c-1-.32-2-.63-3-.91a93.57,93.57,0,0,0-16.82-2.85c-15-1.26-27.24-.25-35.65,4.34s-13.72,12.67-15,27.68c-.6,7.11-.82,14.49-.75,21,.87.48,1.64-31.6,14.24-41.53,12.43-9.8,30.57-8.41,40.89-7.54a93.68,93.68,0,0,1,16.83,2.85c6.72,1.84,12.83,4.63,17.48,8.62-.32-.4-.64-.79-1-1.18C301.14,37.33,295,34,288.12,31.68Z"/><path id="ellipse5811" class="cls-36" d="M250.75,39.27c2.23,2.8.17,7.85-4.61,11.28s-10.47,4-12.7,1.15-.17-7.85,4.61-11.28S248.52,36.47,250.75,39.27Z"/></g><path id="path5815" d="M337,83.27l-27.81,6.2.32,1.43,27.81-6.2Z"/><path id="path5817" d="M206,81.08l-.7,1.27,4.09,2.25.7-1.27Z"/><g id="g5833"><path id="path5819" d="M336.51,47.24a7.84,7.84,0,0,0-6.87,1.12,17.57,17.57,0,0,0-5.29,6.72c-2.93,5.8-4.82,13.89-5.63,22.11s-.52,16.55,1.17,22.84a18.19,18.19,0,0,0,3.76,7.68,7.57,7.57,0,0,0,6.86,2.49c1-.16,4.05-.52,7.2-1.19s6.47-1.51,8.6-3.24c1.92-1.56,3.45-3.9,4.65-7.72s2.13-9.19,3-17.16,1-13.41.62-17.4-1.41-6.59-3-8.51c-1.72-2.12-4.73-3.62-7.66-4.9s-5.81-2.25-6.9-2.67Z"/><path id="path5821" class="cls-10" d="M330.28,108.76c2.23-.36,11.76-1.39,15.11-4.12s5.43-8.06,7.07-23.9.69-21.5-2-24.85-11.6-6.22-13.95-7.12C319,42.11,312.51,111.6,330.28,108.76Z"/><path id="path5823" class="cls-11" d="M340.12,76.54s-2.57,10.12-11.62,8.81c-7-1-8.1-6.5-8.23-8.9-1.78,16.46,1,33.76,10,32.31,2.23-.36,11.76-1.4,15.11-4.12,2.67-2.16,4.53-6,6-15.5a112.26,112.26,0,0,0-11.28-12.6Z"/><path id="path5825" class="cls-11" d="M345.45,52.42c-2.54,5.27-4.71,15.46-5.7,26.67s-.61,21.94,1,27.67a14,14,0,0,0,4.64-2.12c3.35-2.72,5.43-8.06,7.07-23.9s.69-21.5-2-24.85a16,16,0,0,0-5-3.48Z"/><path id="path5827" d="M348.32,59.34a2.4,2.4,0,0,0-.53-.12,2.55,2.55,0,0,0-1.89.64,5.56,5.56,0,0,0-1.13,1.4A20,20,0,0,0,343,65.53a74.88,74.88,0,0,0-2.54,13.59,74.05,74.05,0,0,0-.29,13.82,19.67,19.67,0,0,0,.85,4.54,5.38,5.38,0,0,0,.82,1.6,2.58,2.58,0,0,0,1.71,1,2.55,2.55,0,0,0,1.89-.64,5.23,5.23,0,0,0,1.13-1.4,19.92,19.92,0,0,0,1.76-4.26,75.18,75.18,0,0,0,2.54-13.6,74.05,74.05,0,0,0,.29-13.82,19.67,19.67,0,0,0-.85-4.54,5.15,5.15,0,0,0-.82-1.6A2.84,2.84,0,0,0,348.32,59.34Z"/><path id="path5829" class="cls-10" d="M349.43,80c-1.08,10.49-3.64,18.82-5.72,18.6s-2.88-8.89-1.79-19.37h0c1.08-10.49,3.64-18.82,5.72-18.6h0c2.07.21,2.88,8.89,1.79,19.37Z"/><path id="path5831" d="M345.93,62.19c-1.67,2.91-3.24,9.6-4,17.08-.84,8.13-.56,15.45.69,18.22,1.67-2.91,3.24-9.6,4-17.08C347.46,72.28,347.18,65,345.93,62.19Z"/></g></g><path class="cls-37" d="M283.14,265.59a16.41,16.41,0,0,1-3.52-.18,4.46,4.46,0,0,1-3.7-3c0-.06,0-.14-.06-.18-1.17-1.53-1.21-3.36-1.38-5.14-.07-.84-.35-1.62-.36-2.48a3,3,0,0,0-1.32-2.25,14.78,14.78,0,0,1-4.42-5.8,9.42,9.42,0,0,1-1-5.25c.14-.87-.15-1.76.07-2.68a3.85,3.85,0,0,1,5.14-3,31.26,31.26,0,0,0,3.64,1.25,2.48,2.48,0,0,1,.7.33,20.1,20.1,0,0,0,3.31,1.58,7.25,7.25,0,0,1,2.7,1.46,1.54,1.54,0,0,0,1.07.35,2.63,2.63,0,0,1,2.35,1.72,23.6,23.6,0,0,0,1.48,2.7,1.31,1.31,0,0,0,.54.53,9.66,9.66,0,0,0,2.39,1.23,2,2,0,0,1,1.38,1c.39.59.79,1.18,1.13,1.8a6,6,0,0,0,1.62,2.14c1.94,1.4,2.57,3.68,1.63,6.23a6.14,6.14,0,0,1-2.42,3.38,27.66,27.66,0,0,0-2.43,1.92,7.33,7.33,0,0,1-3.1,1.52C286.73,265.16,284.89,265.9,283.14,265.59Z"/><path class="cls-38" d="M276.43,244.41c-.59-2.37.59-4.24,1.12-6.16.64-2.29,3.74-3.65,6.11-3.14.86.18,1.69.49,2.55.61a4,4,0,0,1,2.64,1.43c1.14,1.34,2.28,2.68,3.5,4A6.09,6.09,0,0,1,294,246.3c-.41,4.44-.58,4.83-4.76,6.12-1.4.43-2.73,1.07-4.11,1.57-3,1.1-7.26-1.08-7.92-4.21C276.84,247.94,276,246.16,276.43,244.41Z"/><path class="cls-4" d="M340.13,197.79c-.24.24-.44.41-.61.61a1.62,1.62,0,0,0-.47,1.29,7,7,0,0,1,.05,1.29,2.13,2.13,0,0,1-.83,1.94.38.38,0,0,0-.11.11,2.34,2.34,0,0,1-1.92,1.19c-.31,0-.51.51-.29.75,1.12,1.21.62,2.19-.12,3.28-.41.61-1,1.06-1.35,1.7a.78.78,0,0,1-1.12.26,3.37,3.37,0,0,0-.56-.3.4.4,0,0,0-.49.3,2.11,2.11,0,0,0-.07.62c0,1.24-.46,2.37-.52,3.6a2.47,2.47,0,0,1-.83,1.5.72.72,0,0,1-.4.23,5.25,5.25,0,0,1-4.2-1.28c-.08-.07-.19-.15-.21-.25-.25-1-.82-2-.32-2.95a6.27,6.27,0,0,0,.64-2.08,1.16,1.16,0,0,1,.4-.83c1-.84,1-2,.91-3.22,0-.75-.1-1.49-.08-2.25a3,3,0,0,1,2.05-3,.41.41,0,0,0,.25-.62c-.38-.9-.79-1.79-1.17-2.69a9.88,9.88,0,0,1-.52-1.37A1.29,1.29,0,0,1,329,194c1.06-.46,2.15-.85,3.24-1.25a.85.85,0,0,1,.63,0c.75.42,1.11-.07,1.62-.46a4.56,4.56,0,0,0,1.5-1.94,4.11,4.11,0,0,1,1.85-1.86c.53-.3.54-.38.13-.72-.13-.11-.28-.18-.41-.29a2.33,2.33,0,0,1-.89-2.7,6.63,6.63,0,0,1,.75-2.06,1.34,1.34,0,0,0,.31-.71,1.1,1.1,0,0,1,.52-.91,2.14,2.14,0,0,0,.59-.71,2,2,0,0,1,2.59-.94.75.75,0,0,1,.57.53,1.46,1.46,0,0,0,.88,1.1.88.88,0,0,1,.48.63,5.34,5.34,0,0,0,.74,1.59,1.51,1.51,0,0,1,.05,1.81,1.19,1.19,0,0,0-.12,1.48c.73,1.29.14,2.37-.26,3.5a1,1,0,0,1-.56.52,6.75,6.75,0,0,0-.82.48c-.6.41-.67.66-.4,1.34.06.15.17.28.24.43a.84.84,0,0,1-.08.9,3.09,3.09,0,0,0-.71,2A2.48,2.48,0,0,1,340.13,197.79Z"/><path class="cls-3" d="M292.74,116a1.38,1.38,0,0,0-.24-.38,1.44,1.44,0,0,1-.35-1.48,3.06,3.06,0,0,0,.08-1,.66.66,0,0,0-.59-.71,8.88,8.88,0,0,1-3.23-1,1.91,1.91,0,0,0-.58-.15,9.94,9.94,0,0,1-2.28-.88,4.59,4.59,0,0,1-1.88-2.5,1.06,1.06,0,0,1,0-1c.87-1.93,2.65-2.77,4.36-3.69a1.72,1.72,0,0,1,.79-.06,11.76,11.76,0,0,0,5.28-1.16,1.21,1.21,0,0,1,1.32,0c.67.46,1.56.37,2.22.95a2.59,2.59,0,0,0,1.55.36,4.63,4.63,0,0,1,2.28.74c.22.15.57.27.63.47a3.25,3.25,0,0,0,1.75,1.85.55.55,0,0,1,.2.72,1.84,1.84,0,0,0,.3,2.23c.24.25.12.66,0,1-.28.61-.71,1.15-.46,1.9,0,.14-.08.39-.2.54a11.33,11.33,0,0,1-2,2.52,4.9,4.9,0,0,0-1,1c-.89,1.13-1.44,1.25-2.8.77a8.34,8.34,0,0,0-.95-.35,2.53,2.53,0,0,0-1.76.22C293.86,117.57,293.66,117.49,292.74,116Z"/><path class="cls-4" d="M200.45,160.4a2.4,2.4,0,0,0,2.43,2.62,10.22,10.22,0,0,1,1.75.34,9.33,9.33,0,0,0,6.82-.59,11.46,11.46,0,0,0,2.24-2,3.44,3.44,0,0,0,1.28-3.4,1.81,1.81,0,0,1,.42-1.47c.26-.38.76-.69.69-1.18-.16-1.21.73-2.13.77-3.27a.63.63,0,0,1,.52-.55,2.79,2.79,0,0,1,1.15-.29,1.9,1.9,0,0,0,1.6-.7c1.22-.89,1.32-2.18,1.73-3.28.27-.75-.45-1.34-.79-2a7,7,0,0,0-.73-1.2c-.31-.38-.43-1-.76-1.32A150,150,0,0,0,200.68,155C200.59,156.79,200.47,158.59,200.45,160.4Z"/><path class="cls-5" d="M170.25,167.37a3.75,3.75,0,0,0,1.06,3.48,2.46,2.46,0,0,1,.66,1,4.64,4.64,0,0,0,2,2.41,5.65,5.65,0,0,0,3.82,1.57.77.77,0,0,1,.4.06c1.79,1,3.57-.15,5.35,0a.36.36,0,0,0,.19-.08c.85-.71,1.94-1.16,1.93-2.62a8.81,8.81,0,0,1,.65-2.54,2,2,0,0,0,.21-1,9.33,9.33,0,0,0-1.2-3.82,8.84,8.84,0,0,1-1.76-4.24c-3.41-3.16-7.1-6.37-10.67-9.37a1.52,1.52,0,0,0,.21.84c.73,1.2.64,2.61,1,3.92a1.2,1.2,0,0,1-.69,1.54c-1.2.34-1.63,1.35-2.31,2.37a3.33,3.33,0,0,0-.9,3A15.85,15.85,0,0,1,170.25,167.37Z"/><path class="cls-39" d="M222.4,260c-1.51-3-3.34-5.78-5.05-8.65a4.86,4.86,0,0,0-4.17-2.53,18,18,0,0,0-2.32,0c-2,9-3.48,17.81-4.59,26.29,1.8.78,3.6,1.57,5.42,2.33a3.27,3.27,0,0,0,1.65.34c2-.37,4-.43,6-.62,1.43-.14,2.08-1.56,3.2-2.24.11-.06.11-.35.12-.54.2-3.9,1.05-7.76.54-11.71A8,8,0,0,0,222.4,260Z"/><path class="cls-3" d="M207,369.86c1.7-.3,2.52-1.71,3.46-2.93a1.37,1.37,0,0,0,.22-.78c.06-1.88-.22-3.64-1.89-4.88a2,2,0,0,0-1.27-.5c-1.41.05-2.6-.71-3.89-1.08a1.21,1.21,0,0,1-1-1.35c.28-1.21-.38-2.09-.94-3.18a3.18,3.18,0,0,0-2-2.14,22.58,22.58,0,0,0-9.95,3.56,13.65,13.65,0,0,0-4.91,6.18c.31.33.61.68.92,1a2,2,0,0,0,.75.65,9.39,9.39,0,0,0,3.92.81,8.19,8.19,0,0,1,4.93.71,2.58,2.58,0,0,0,1.19.13c.27,0,.53-.1.8-.12a1.74,1.74,0,0,1,1.94,1.13,3.53,3.53,0,0,0,.25.56,5.85,5.85,0,0,0,4.5,2.75A10.83,10.83,0,0,0,207,369.86Z"/></g><g id="LOGO"><path class="cls-40" d="M274.32,173.55a9.3,9.3,0,1,1-11.58-11.37,8.16,8.16,0,0,0-1.23,10.63,5.61,5.61,0,0,0-.93,2.77l-.06.82.82-.08a5.62,5.62,0,0,0,2.79-1.08,8,8,0,0,0,3.75,1.09A8.11,8.11,0,0,0,274.32,173.55Zm.76-12.76a9.41,9.41,0,0,0-2,.05,4.87,4.87,0,0,0-1.37.31,7.67,7.67,0,0,0-1.44.63,8.05,8.05,0,0,0-1.28.91c-.24.2-.47.43-.7.66a11.36,11.36,0,0,0-1,1.13,13.31,13.31,0,0,0-.8,1.21l-.16.32a.73.73,0,0,1-.53.43,5.82,5.82,0,0,0-1.07.28,4.25,4.25,0,0,0-1.24.78,6.79,6.79,0,0,0-1.84,2.56l0,0c.69.2,1.38.43,2.07.65a2.37,2.37,0,0,1,.34.13.1.1,0,0,1,.06.13l-.17.65c0,.14,0,.14.1.19a1.76,1.76,0,0,1,.47.27,1.46,1.46,0,0,1,.3.46c.06.13.06.13.19.08l.64-.2c.06,0,.1,0,.13.05a2,2,0,0,1,.16.33c.26.67.53,1.35.77,2,0,0,0,0,0,0a7,7,0,0,0,2.43-2,4.51,4.51,0,0,0,.71-1.29,6.45,6.45,0,0,0,.21-1.08.73.73,0,0,1,.4-.56c.1-.06.2-.11.3-.18a14,14,0,0,0,1.16-.87,9.36,9.36,0,0,0,1.07-1,8.67,8.67,0,0,0,.62-.74,7.57,7.57,0,0,0,1.37-2.81,5.12,5.12,0,0,0,.23-1.39,8.22,8.22,0,0,0-.08-2c0-.1-.06-.14-.15-.15Zm-13.81,14.84a4.84,4.84,0,0,0,2.5-1c.79-.81.79-1.53.35-1.95a.94.94,0,0,0-.66-.27,1.92,1.92,0,0,0-1.29.69,4.79,4.79,0,0,0-.9,2.53"/><path class="cls-41" d="M267.88,176.33a8,8,0,0,1-3.75-1.09,5.62,5.62,0,0,1-2.79,1.08l-.82.08.06-.82a5.61,5.61,0,0,1,.93-2.77,8.16,8.16,0,0,1,1.23-10.63,9.31,9.31,0,1,0,11.58,11.37A8.11,8.11,0,0,1,267.88,176.33Z"/><path class="cls-42" d="M275.08,160.79a9.41,9.41,0,0,0-2,.05,4.87,4.87,0,0,0-1.37.31,7.67,7.67,0,0,0-1.44.63,8.05,8.05,0,0,0-1.28.91c-.24.2-.47.43-.7.66a11.36,11.36,0,0,0-1,1.13,13.31,13.31,0,0,0-.8,1.21l-.16.32a.73.73,0,0,1-.53.43,5.82,5.82,0,0,0-1.07.28,4.25,4.25,0,0,0-1.24.78,6.79,6.79,0,0,0-1.84,2.56l0,0c.69.2,1.38.43,2.07.65a2.37,2.37,0,0,1,.34.13.1.1,0,0,1,.06.13l-.17.65c0,.14,0,.14.1.19a1.76,1.76,0,0,1,.47.27,1.46,1.46,0,0,1,.3.46c.06.13.06.13.19.08l.64-.2c.06,0,.1,0,.13.05a2,2,0,0,1,.16.33c.26.67.53,1.35.77,2,0,0,0,0,0,0a7,7,0,0,0,2.43-2,4.51,4.51,0,0,0,.71-1.29,6.45,6.45,0,0,0,.21-1.08.73.73,0,0,1,.4-.56c.1-.06.2-.11.3-.18a14,14,0,0,0,1.16-.87,9.36,9.36,0,0,0,1.07-1,8.67,8.67,0,0,0,.62-.74,7.57,7.57,0,0,0,1.37-2.81,5.12,5.12,0,0,0,.23-1.39,9.09,9.09,0,0,0-.08-2c0-.1-.06-.14-.15-.15Z"/><path class="cls-42" d="M261.27,175.63a4.84,4.84,0,0,0,2.5-1c.79-.81.79-1.53.35-1.95a.94.94,0,0,0-.66-.27,1.92,1.92,0,0,0-1.29.69,4.79,4.79,0,0,0-.9,2.53"/><path class="cls-41" d="M272.15,164.19c.2.19-.47,1.22-1.49,2.31a8,8,0,0,1-2.21,1.63,8,8,0,0,1,1.49-2.31c1-1.09,2-1.82,2.21-1.63Z"/></g></g></g></g></svg>