<svg xmlns="http://www.w3.org/2000/svg" viewBox="0 0 79.1 96"><g id="Layer_2" data-name="Layer 2"><g id="Layer_1-2" data-name="Layer 1"><rect x="16" y="31" width="38" height="6"/><rect x="16" y="59" width="32" height="6"/><rect x="16" y="73" width="22" height="6"/><rect x="16" y="45" width="38" height="6"/><path d="M76.91,52.67A7.65,7.65,0,0,0,70,50.58V0H20.76L0,20.76V96H70V70.73l7-7.37A7.72,7.72,0,0,0,76.91,52.67ZM19,10.24V19H10.24ZM64,90H6V25H25V6H64V54.76L47.38,71.38,42.52,86l16-3.2L64,77Zm8.69-30.79-17.21,18-4,.8,1.14-3.42L70.33,56.91a1.65,1.65,0,0,1,2.36,2.3Z"/></g></g></svg>